<svg width="148" height="30" viewBox="0 0 148 30" fill="none" xmlns="http://www.w3.org/2000/svg">
<path d="M36.4066 9.32827H31.6914V7.09656H43.7902V9.32827H39.075V21.3649H36.4432V9.32827H36.4066Z" fill="white"/>
<path d="M58.4473 7.09656V21.3649H55.8155V15.2551H48.432V21.3649H45.8002V7.09656H48.432V12.9868H55.8155V7.09656H58.4473Z" fill="white"/>
<path d="M72.9953 19.1331V21.3649H62.2855V7.09656H72.7029V9.32827H64.9538V13.0234H71.8256V15.2185H64.9538V19.1697H72.9953V19.1331Z" fill="white"/>
<path d="M90.7967 18.0722H83.669L82.28 21.3649H79.5386L85.9718 7.09656H88.567L95.0002 21.3649H92.2222L90.7967 18.0722ZM89.9194 15.9868L87.2145 9.7307L84.5462 15.9868H89.9194Z" fill="white"/>
<path d="M108.817 15.2557C109.292 15.8777 109.512 16.6094 109.512 17.524C109.512 18.7679 109.037 19.7192 108.086 20.3777C107.136 21.0362 105.747 21.4021 103.919 21.4021H96.8282V7.13379H103.517C105.199 7.13379 106.515 7.46306 107.392 8.12159C108.306 8.78013 108.744 9.69477 108.744 10.8289C108.744 11.524 108.598 12.146 108.269 12.6948C107.94 13.2435 107.501 13.646 106.917 13.9753C107.721 14.1948 108.342 14.6338 108.817 15.2557ZM99.4599 9.18257V13.1338H103.225C104.139 13.1338 104.87 12.9509 105.345 12.6216C105.857 12.2923 106.076 11.8167 106.076 11.1582C106.076 10.4996 105.82 10.024 105.345 9.69476C104.833 9.3655 104.139 9.18257 103.225 9.18257H99.4599ZM106.807 17.2314C106.807 15.8411 105.783 15.1826 103.737 15.1826H99.4599V19.3167H103.737C105.783 19.2801 106.807 18.585 106.807 17.2314Z" fill="white"/>
<path d="M118.174 16.3164V21.3652H115.542V16.353L109.95 7.0603H112.764L116.931 14.0115L121.135 7.0603H123.73L118.174 16.3164Z" fill="white"/>
<path d="M124.205 21.3653L125.119 19.2067C125.119 19.2067 128.92 19.2067 129.761 19.2067C130.821 19.2067 131.589 19.0238 132.1 18.6945C132.612 18.3653 132.868 17.9263 132.868 17.3775C132.868 16.975 132.722 16.6458 132.429 16.3897C132.137 16.1336 131.771 15.9141 131.333 15.7677C130.894 15.6214 130.273 15.4385 129.542 15.2555C128.482 14.9994 127.604 14.7433 126.946 14.4872C126.288 14.2311 125.704 13.8287 125.228 13.2799C124.753 12.7311 124.534 11.9994 124.534 11.0848C124.534 10.3165 124.753 9.58479 125.155 8.96284C125.594 8.34089 126.215 7.8287 127.056 7.46284C127.897 7.09699 128.957 6.91406 130.163 6.91406C131.004 6.91406 134.842 6.91406 134.842 6.91406L134.038 9.0726C134.038 9.0726 130.784 9.0726 130.163 9.0726C129.14 9.0726 128.372 9.25553 127.86 9.58479C127.348 9.95065 127.093 10.3897 127.093 10.975C127.093 11.3775 127.239 11.7067 127.531 11.9628C127.824 12.2189 128.189 12.4019 128.628 12.5482C129.066 12.6946 129.688 12.8775 130.419 13.0604C131.479 13.3165 132.32 13.536 132.977 13.8287C133.635 14.0848 134.22 14.4872 134.695 15.036C135.171 15.5848 135.39 16.2799 135.39 17.1946C135.39 17.9628 135.171 18.658 134.769 19.3165C134.33 19.9385 133.709 20.4506 132.868 20.8165C132.027 21.1824 130.967 21.3653 129.724 21.3653C128.628 21.3653 124.205 21.3653 124.205 21.3653Z" fill="white"/>
<path d="M136.816 21.3653L137.73 19.2067C137.73 19.2067 141.531 19.2067 142.372 19.2067C143.432 19.2067 144.199 19.0238 144.711 18.6945C145.223 18.3653 145.479 17.9263 145.479 17.3775C145.479 16.975 145.333 16.6458 145.04 16.3897C144.748 16.1336 144.382 15.9141 143.944 15.7677C143.505 15.6214 142.884 15.4385 142.153 15.2555C141.093 14.9994 140.215 14.7433 139.557 14.4872C138.899 14.2311 138.315 13.8287 137.839 13.2799C137.364 12.7311 137.145 11.9994 137.145 11.0848C137.145 10.3165 137.364 9.58479 137.766 8.96284C138.205 8.34089 138.826 7.8287 139.667 7.46284C140.508 7.09699 141.568 6.91406 142.774 6.91406C143.615 6.91406 147.453 6.91406 147.453 6.91406L146.648 9.0726C146.648 9.0726 143.395 9.0726 142.774 9.0726C141.75 9.0726 140.983 9.25553 140.471 9.58479C139.959 9.95065 139.704 10.3897 139.704 10.975C139.704 11.3775 139.85 11.7067 140.142 11.9628C140.435 12.2189 140.8 12.4019 141.239 12.5482C141.677 12.6946 142.299 12.8775 143.03 13.0604C144.09 13.3165 144.931 13.536 145.588 13.8287C146.246 14.0848 146.831 14.4872 147.306 15.036C147.782 15.5848 148.001 16.2799 148.001 17.1946C148.001 17.9628 147.782 18.658 147.38 19.3165C146.941 19.9385 146.32 20.4506 145.479 20.8165C144.638 21.1824 143.578 21.3653 142.335 21.3653C141.275 21.3653 136.816 21.3653 136.816 21.3653Z" fill="white"/>
<path d="M12.5732 9.32935C10.4166 9.32935 8.77179 9.65861 8.77179 9.65861V13.0611H16.3381V9.65861C16.3747 9.65861 14.7298 9.32935 12.5732 9.32935Z" fill="white"/>
<path d="M12.574 0C6.83527 0 0 2.96341 0 2.96341V21L12.574 30L25.1479 21.0366V2.92683C25.1845 2.92683 18.3492 0 12.574 0ZM19.7017 19.061L16.3754 21.3659C16.3754 19.7561 16.3754 16.4634 16.3754 16.4634H8.80909V21.3659L5.55594 19.061V7.09756C5.55594 7.09756 9.64979 6.14634 12.6105 6.14634C15.5713 6.14634 19.7017 7.09756 19.7017 7.09756V19.061Z" fill="white"/>
</svg>
