<?xml version="1.0" encoding="utf-8"?>
<!-- Generator: Adobe Illustrator 22.0.0, SVG Export Plug-In . SVG Version: 6.00 Build 0)  -->
<svg version="1.1" xmlns="http://www.w3.org/2000/svg" xmlns:xlink="http://www.w3.org/1999/xlink" x="0px" y="0px"
	 viewBox="0 0 1417.3 1417.3" style="enable-background:new 0 0 1417.3 1417.3;" xml:space="preserve">
<style type="text/css">
	.st0{display:none;}
	.st1{display:inline;}
	.st2{fill:#A45AFF;}
	.st3{fill:#5D5996;}
	.st4{fill:url(#SVGID_1_);}
	.st5{fill:#FFFFFF;}
	.st6{fill:#777B99;}
	.st7{fill:#292D5A;}
	.st8{fill:#FF00FF;}
	.st9{fill:#333333;}
	.st10{fill:#999999;}
</style>
<g id="Layer_1" class="st0">
	<rect class="st1" width="1417.3" height="1417.3"/>
</g>
<g id="Layer_2">
	<g>
		<path class="st2" d="M1023,818.1H673.8c-8.2-0.3-17.1,1.3-25.2,4.2l-1-4.2H547l-1.5,6c-9.4-3.9-19.7-6-30.3-6c-0.1,0-0.1,0-0.2,0
			h-53.6c-0.1,0-0.3,0-0.4,0c-17.2,0-33.4,6.2-45.7,17.4c-13.4,12.2-21,29.6-21,47.8v134.5l0.1,0.8c1.6,11.7,4.3,31.3,22.9,40.8
			c16.1,8.3,32.9,4,45.1,0.8l1.1-0.3c18.4-6.6,35.4-12,52.1-16.6c17.2-4.8,32.6-13.4,43.3-24.3c7.5-7.6,15.2-16.6,18.9-28
			c89.7-12.4,180.4-12,269.9,1.3l0.5,38.2l9.4,2.1c51.4,11.4,99.9,27.3,148.2,48.5l17.1,7.5V970.9l-8.9-2.5c-0.4-0.1-0.7-0.2-1-0.3
			l-0.1-35.4l10,1.6V818.1z"/>
		<g>
			<path class="st2" d="M451.2,368.3l3.3,123.6l0,0.5l-0.2,0.7c-1.1,3.5-2,7.2-2.8,10.9c-0.4,1.9-0.7,3.7-1.1,5.6l-0.9,5.6
				c-1.1,7.5-1.7,15.1-1.9,22.6c-0.1,3.8,0.1,7.5,0.2,11.3c0.1,1.9,0.3,3.7,0.5,5.6l0.2,2.8l0.4,2.8l0.8,5.5l1.1,5.5
				c0.2,0.9,0.4,1.8,0.6,2.7l0.8,2.7l1.5,5.3l-11.2,3.2l-1.3-5.9l-0.7-3c-0.2-1-0.3-2-0.5-3l-0.9-6l-0.5-6l-0.3-3l-0.1-3
				c-0.1-2-0.2-4-0.2-6c0.1-4,0.1-8,0.5-12c0.6-7.9,1.6-15.8,3.2-23.6l1.3-5.8c0.5-1.9,1-3.8,1.5-5.8c1.1-3.8,2.2-7.6,3.6-11.4
				l-0.2,1.1L451.2,368.3z"/>
			<path class="st2" d="M435.3,361.2l3.3,123.6l0,0.5l-0.2,0.7c-1.7,5.1-3.2,10.4-4.5,15.7c-1.3,5.3-2.5,10.7-3.5,16.1
				c-2.1,10.8-3.6,21.7-4.3,32.6c-0.4,5.4-0.6,10.9-0.6,16.3c0,5.4,0.2,10.9,0.6,16.3c0.8,10.8,2.6,21.5,5.4,31.8l-11.2,2.9
				c-2.7-11.3-4.1-22.7-4.5-34.1c-0.2-5.7-0.2-11.4,0.1-17.1c0.2-5.7,0.7-11.3,1.3-17c1.2-11.3,3.2-22.4,5.7-33.4
				c1.3-5.5,2.7-10.9,4.3-16.3c1.6-5.4,3.3-10.7,5.3-16.1l-0.2,1.1L435.3,361.2z"/>
			<path class="st2" d="M968.3,368.3l3.3,123.6l-0.2-1.1c1.4,3.9,2.6,7.6,3.6,11.4c0.5,1.9,1,3.8,1.5,5.8l1.3,5.8
				c1.6,7.8,2.7,15.6,3.2,23.6c0.3,4,0.4,8,0.5,12c0,2-0.1,4-0.2,6l-0.1,3l-0.3,3l-0.5,6l-0.9,6c-0.2,1-0.3,2-0.5,3l-0.7,3l-1.3,5.9
				l-11.2-3.2l1.5-5.3l0.8-2.7c0.2-0.9,0.4-1.8,0.6-2.7l1.1-5.5l0.8-5.5l0.4-2.8l0.2-2.8c0.1-1.9,0.3-3.7,0.5-5.6
				c0.1-3.8,0.3-7.5,0.2-11.3c-0.1-7.5-0.7-15.1-1.9-22.6l-0.9-5.6c-0.4-1.9-0.7-3.7-1.1-5.6c-0.8-3.7-1.8-7.4-2.8-10.9l-0.2-0.7
				l0-0.5L968.3,368.3z"/>
			<path class="st2" d="M984.2,361.2l3.3,123.6l-0.2-1.1c2,5.4,3.7,10.7,5.3,16.1c1.6,5.4,3,10.9,4.3,16.3c2.5,11,4.5,22.1,5.7,33.4
				c0.6,5.6,1.1,11.3,1.3,17c0.3,5.7,0.3,11.4,0.1,17.1c-0.4,11.4-1.8,22.8-4.5,34.1l-11.2-2.9c2.8-10.3,4.6-21,5.4-31.8
				c0.4-5.4,0.6-10.8,0.6-16.3c0-5.4-0.2-10.9-0.6-16.3c-0.8-10.9-2.3-21.8-4.3-32.6c-1-5.4-2.2-10.8-3.5-16.1
				c-1.3-5.3-2.8-10.7-4.5-15.7l-0.2-0.7l0-0.5L984.2,361.2z"/>
		</g>
		<path class="st2" d="M1011.5,769.4c-0.1-0.7-1.7-16.6-9.2-40.7l16.9-10.4l-6.6-21.5c-1.2-3.8-7-22-15.2-36
			c5.5-7.5,8.4-13,8.8-13.8l6.1-12.3l-5.6-12.5c-0.8-1.7-18.3-40.7-41.1-66.6c0-40.9-9.4-66-13.6-75.1L926.8,426l-27.1,53.6
			c-0.8,1.5-1.7,3.2-2.6,4.9c-6.5-2.6-13.3-4.3-20.4-5.1c-17.4-1.8-25.7-7.4-27.5-11.6c-1.9-4.4,2-10.5,4.5-13.8
			c13.7-17.9,18.4-38.9,12.9-57.7c-7.4-25.2-31.9-45.5-72.7-60.2c-28.9-10.4-56.8-15-80.8-13.3c-21.6,1.6-39.6,8.2-50.8,18.7
			c-10.2,9.6-14.1,21.8-10.7,33.5c4.6,15.7,14.8,22.2,23.3,26l-0.7,1c-0.2,0.2-0.3,0.5-0.5,0.8l-0.5,0.8c-0.2,0.3-0.3,0.5-0.5,0.8
			l-0.6,0.9c0,0,0,0.1-0.1,0.1c-0.7,0.2-1.5,0.5-2.2,0.8c-1,0.4-2.1,0.8-3.1,1.2c-0.6,0.3-1.2,0.5-1.7,0.8l-0.2,0.1
			c-0.4,0.2-0.7,0.3-0.9,0.4c-0.8,0.4-1.6,0.8-2.4,1.2l-0.3,0.2c-4.3,2.4-8.3,5.3-11.9,8.6c-0.5,0.5-1.1,1-1.6,1.6
			c-0.2,0.2-0.5,0.5-0.7,0.7c-0.4,0.4-0.8,0.8-1.3,1.4c-0.2,0.2-0.4,0.4-0.6,0.6c-0.5,0.6-1,1.2-1.6,1.9l-0.3,0.4
			c-0.4,0.5-0.8,1-1.3,1.6l-0.5,0.7c-0.3,0.4-0.6,0.8-0.9,1.3l-0.5,0.7c-0.4,0.6-0.8,1.1-1.2,1.8l-0.3,0.5c-0.3,0.5-0.6,1-1,1.6
			l-0.4,0.6c-0.2,0.4-0.5,0.8-0.7,1.2l-0.4,0.7c-0.3,0.5-0.6,1.1-0.9,1.6l-0.3,0.5c-0.2,0.5-0.5,0.9-0.7,1.4l-0.3,0.7
			c-0.2,0.4-0.3,0.7-0.5,1.1l-0.3,0.6c-0.2,0.5-0.4,1-0.6,1.5l-0.2,0.4c-0.1,0.2-0.2,0.4-0.2,0.6l-4.6,2.9l-2.8,17.5l-0.1,0.5
			c-0.7,4.5-1.3,9.3-1.8,14.4l-0.3,3.5c-0.2,2-0.3,4-0.5,6l-0.4,5.3l1.9,5c0.1,0.2,0.1,0.4,0.2,0.5c0.1,0.9,0,2.8-0.2,4.1l0,0.3
			c0,0,0,0,0,0h-18.4c-27.5,0-50.9,3.9-63.2,6.5c-6.6-5.9-16.3-19.4-22.3-31.4l-27-53.8l-25.2,54.7c-4.2,9.1-13.7,34.2-13.6,75.1
			c-22.8,25.8-40.3,64.8-41.1,66.6l-5.6,12.5l6.1,12.3c0.4,0.8,3.2,6.3,8.8,13.8c-8.2,14.1-14,32.2-15.2,36l-6.6,21.5l16.9,10.4
			c-7.5,24.1-9.1,39.9-9.2,40.7l-0.4,4l10.2,16.2l-9,18.5l3.2,5.4c4.6,7.7,28.5,46.5,49,55.4l2.9,1.2L634.3,850l0.7-0.6
			c15.7,6.4,32.3,11.1,33,11.4l1.7,0.5l9.3-0.2l-1.6,6.1l37-5.4c1.7-0.3,3.5-0.7,5.2-1.3l30.1,0.8l1.7-0.5c0.8-0.2,17.4-4.9,33-11.4
			l0.7,0.6l170.4,20.2l2.9-1.2c20.5-8.9,44.4-47.7,49-55.4l3.2-5.4l-9-18.5l10.2-16.2L1011.5,769.4z M795.7,500
			c0-0.1,0.1-0.3,0.1-0.4c1.4,1.7,2.9,3.3,4.4,4.9h-4.4c0,0,0,0,0,0l0-0.3C795.7,503,795.6,501,795.7,500z M783.7,435.9
			c0,0.1-0.1,0.2-0.1,0.3c-0.1-0.1-0.1-0.2-0.2-0.4l-0.4-0.6c-0.2-0.4-0.4-0.8-0.8-1.3l-0.3-0.6c-0.3-0.5-0.6-1-0.9-1.5l-0.3-0.5
			c-0.4-0.6-0.7-1.1-1.2-1.8l-0.5-0.6c-0.3-0.4-0.6-0.8-1-1.4l-0.5-0.6c-0.4-0.5-0.8-1-1.3-1.6l-0.3-0.4c-0.5-0.6-1-1.2-1.5-1.8
			c-0.2-0.2-0.4-0.4-0.6-0.7c-0.4-0.4-0.8-0.9-1.2-1.3c-0.2-0.2-0.5-0.5-0.7-0.7c-0.5-0.5-1.1-1-1.6-1.6c-3.6-3.3-7.6-6.2-12-8.6
			l-0.2-0.1c-0.8-0.4-1.6-0.8-2.3-1.2c-0.3-0.2-0.7-0.3-1-0.5l-0.3-0.1c-0.6-0.3-1.1-0.5-1.7-0.8c-1-0.4-2-0.8-3.1-1.2
			c-0.7-0.3-1.5-0.5-2.2-0.7c0,0,0-0.1-0.1-0.1l-0.6-1c-0.2-0.3-0.3-0.5-0.5-0.8l-0.6-1c-0.1-0.2-0.3-0.4-0.5-0.7l-0.9-1.3
			c-0.2-0.3-0.4-0.5-0.5-0.7l-0.3-0.4c-0.2-0.2-0.4-0.5-0.6-0.8l-0.5-0.6c0.1-0.9,0.2-1.7,0.2-2.5c13.6,3.8,39.3,15.9,42.5,27.4
			C786.6,428.7,785.7,430.9,783.7,435.9z"/>
		<path class="st2" d="M956,331.1l-33.2-10.8c-68.7-22.4-140.2-33.8-212.5-33.9c-0.1,0-0.1,0-0.1,0c-72.7,0-144.5,11.4-213.4,33.9
			l-33.2,10.8v477.7c0,59.8,19,122.3,53.5,175.9c40.8,63.4,101.5,111.7,175.7,139.8l17.1,6.5l17.1-6.5
			c74.2-28.1,134.9-76.4,175.7-139.8C937,931.1,956,868.6,956,808.8L956,331.1z"/>
		<path d="M943.2,340.3l-24.4-8c-67.4-22-137.6-33.2-208.5-33.3c-71.3,0-141.8,11.1-209.6,33.3l-24.4,8v468.5
			c0,57.4,18.3,117.4,51.5,169c39.3,61.1,97.9,107.7,169.5,134.8l12.5,4.8l12.5-4.8c71.6-27.1,130.2-73.7,169.5-134.8
			c33.2-51.6,51.5-111.6,51.5-169L943.2,340.3z"/>
		<path class="st3" d="M709.8,1082.3c0,0,64.5-26.8,107.4-74.4c0,0,0.1-0.1,0.1-0.1c-27.8,25.7-63.3,47.8-107.5,63.4
			c-75.7-26.6-126-72.7-155.7-122.6c25.2,58.3,74.8,114.8,155.7,145.5c0,0,0,0,0,0V1082.3z"/>
		<g>
			<path class="st3" d="M515.3,832.8V359.4c27.7-9.2,55.8-20.4,84.2-28.5c-34.7,5.2-69.1,12.8-102.8,23v467
				c0,57.2,23.7,126.9,78.8,184.1C533.5,950,515.3,886.1,515.3,832.8z"/>
			<path class="st3" d="M839.5,334.1c21.8,7.7,43.4,18.2,64.7,25.3v473.4c0,53.3-18.2,117.2-60.2,172.2
				c55.1-57.2,78.8-126.8,78.8-184.1v-467C895.4,345.7,867.6,339.1,839.5,334.1z"/>
		</g>
		<g>
			<linearGradient id="SVGID_1_" gradientUnits="userSpaceOnUse" x1="709.7488" y1="285.2045" x2="709.7488" y2="606.2465">
				<stop  offset="0" style="stop-color:#FF00FF"/>
				<stop  offset="1" style="stop-color:#4B20B3"/>
			</linearGradient>
			<path class="st4" d="M886,379.9V800c0,82.3-50,193.1-176.3,240.9C583.5,993,533.5,882.2,533.5,800V379.9
				c40.1-13.1,81.2-21.6,122.7-25.5c18-1.7,36-2.6,54.1-2.5c17.7,0,35.5,0.9,53.2,2.5c11.9,1.1,23.8,2.6,35.6,4.5
				C828.3,363.6,857.5,370.6,886,379.9z"/>
			<path class="st5" d="M766,371.4c0,31-25.2,56.2-56.2,56.2c-31,0-56.2-25.2-56.2-56.2c0-5.9,0.9-11.6,2.6-17
				c18-1.7,36-2.6,54.1-2.5c17.7,0,35.5,0.9,53.2,2.5C765.1,359.7,766,365.4,766,371.4z"/>
			<g>
				<path d="M688.4,467.3v51.6h45.2v1.6h37.6v-27.1c0-10.8,8.8-19.6,19.6-19.6l0,0c10.8,0,19.6,8.8,19.6,19.6v27.1h37.6v-1.6h45.2
					v-51.6H890v-3.2h-4.4v3.2h-3.1v-3.2h-4.4v3.2H875v-3.2h-4.4v3.2h-3.1v-3.2h-4.4v3.2H860v-3.2h-4.4v3.2h-3.1v-3.2h-4.4v-2.8h-3.3
					v-5h-0.3v-21.5h3.7v-8.6h-1.3v-2.8h-3.9v2.8h-2.7v-2.8h-3.9v2.8h-2.7v-2.8h-3.9v2.8h-2.7v-2.8H823v2.8h-1.3v8.6h3.7v21.5v5h-3.1
					v-5h-4.4v5h-3.1v-5h-4.4v5h-3.1v-5h-4.4v5h-3v-5h-4.4v5h-4.6h-4.6v-5h-4.4v5h-3v-5h-4.4v5h-3.1v-5H767v5h-3.1v-5h-4.4v5h-3.1v-5
					v-21.5h3.7v-8.6h-1.3v-2.8h-3.9v2.8h-2.7v-2.8h-3.9v2.8h-2.7v-2.8h-3.9v2.8h-2.7v-2.8h-3.9v2.8h-1.3v8.6h3.7v21.5H737v5h-3.3
					v2.8h-4.4v3.2h-3.1v-3.2h-4.4v3.2h-3.1v-3.2h-4.4v3.2h-3.1v-3.2h-4.4v3.2h-3.1v-3.2h-4.4v3.2h-3.1v-3.2h-4.4v3.2H688.4z
					 M876.7,478.3h9.3v10.3h-9.3V478.3z M860.7,478.3h9.3v10.3h-9.3V478.3z M832,478.3h9.3v10.3H832V478.3z M816.1,478.3h9.3v10.3
					h-9.3V478.3z M756.4,478.3h9.3v10.3h-9.3V478.3z M740.4,478.3h9.3v10.3h-9.3V478.3z M711.8,478.3h9.3v10.3h-9.3V478.3z
					 M695.8,478.3h9.3v10.3h-9.3V478.3z"/>
				<polygon points="769,431 769,436 773.3,436 773.3,431 777.7,431 777.7,436 780.2,436 780.2,421.7 776.1,421.7 776.1,415.7 
					776.1,411.9 776.1,405.9 780.5,405.9 780.5,411.9 782,411.9 790.9,368.3 799.7,411.9 801.2,411.9 801.2,405.9 805.7,405.9 
					805.7,411.9 805.7,415.7 805.7,421.7 801.5,421.7 801.5,436 804,436 804,431 808.4,431 808.4,436 812.7,436 812.7,431 
					817.1,431 817.1,436 817.1,440.8 817.1,466 790.9,466 764.6,466 764.6,440.8 764.6,436 764.6,431 				"/>
			</g>
			<g>
				<path d="M727.8,467.3v-3.2h-4.4v3.2h-3.1v-3.2h-4.4v3.2h-3.1v-3.2h-4.4v3.2h-3.1v-3.2h-4.4v3.2h-3.1v-3.2h-4.4v3.2h-3.1v-3.2
					h-4.4v-2.8h-3.3v-5h-0.3v-21.5h3.7v-8.6h-1.3v-2.8h-3.9v2.8h-2.7v-2.8H674v2.8h-2.7v-2.8h-3.9v2.8h-2.7v-2.8h-3.9v2.8h-1.3v8.6
					h3.7v21.5v5H660v-5h-4.4v5h-3.1v-5h-4.4v5H645v-5h-4.4v5h-3v-5h-4.4v5h-4.6h-4.6v-5h-4.4v5h-3v-5h-4.4v5h-3.1v-5h-4.4v5h-3.1v-5
					h-4.4v5h-3.1v-5v-21.5h3.7v-8.6h-1.3v-2.8h-3.9v2.8h-2.7v-2.8H586v2.8h-2.7v-2.8h-3.9v2.8h-2.7v-2.8h-3.9v2.8h-1.3v8.6h3.7v21.5
					h-0.3v5h-3.3v2.8H567v3.2h-3.1v-3.2h-4.4v3.2h-3.1v-3.2H552v3.2h-3.1v-3.2h-4.4v3.2h-3.1v-3.2H537v3.2h-3.1v-3.2h-4.4v3.2h-3.3
					v51.6h45.2v1.6H609v-27.1c0-10.8,8.8-19.6,19.6-19.6h0c10.8,0,19.6,8.8,19.6,19.6v27.1h37.6v-1.6h45.2v-51.6H727.8z
					 M542.8,488.6h-9.3v-10.3h9.3V488.6z M558.8,488.6h-9.3v-10.3h9.3V488.6z M587.5,488.6h-9.3v-10.3h9.3V488.6z M603.4,488.6h-9.3
					v-10.3h9.3V488.6z M663.1,488.6h-9.3v-10.3h9.3V488.6z M679.1,488.6h-9.3v-10.3h9.3V488.6z M707.7,488.6h-9.3v-10.3h9.3V488.6z
					 M723.7,488.6h-9.3v-10.3h9.3V488.6z"/>
				<polygon points="650.5,431 650.5,436 646.2,436 646.2,431 641.8,431 641.8,436 639.3,436 639.3,421.7 643.4,421.7 643.4,415.7 
					643.4,411.9 643.4,405.9 639,405.9 639,411.9 637.5,411.9 628.6,368.3 619.8,411.9 618.3,411.9 618.3,405.9 613.8,405.9 
					613.8,411.9 613.8,415.7 613.8,421.7 618,421.7 618,436 615.5,436 615.5,431 611.1,431 611.1,436 606.8,436 606.8,431 
					602.4,431 602.4,436 602.4,440.8 602.4,466 628.6,466 654.9,466 654.9,440.8 654.9,436 654.9,431 				"/>
			</g>
		</g>
		<g>
			<rect x="520.5" y="668.3" width="391.9" height="139.7"/>
			<g>
				<path d="M509.4,484.9l-16.2-32.3L478,485.4c-14.4,31.2-12.5,75.9-12.4,77.8l0.4,9.4l82.8,49.3v-93.2l-9-5
					C529.5,518,515.8,497.6,509.4,484.9z"/>
				<path d="M941.5,485.4l-15.1-32.7l-16.2,32.2c-6.4,12.7-20.1,33.2-30.4,38.8l-9,5v93.2l82.8-49.3l0.4-9.4
					C954,561.3,955.9,516.5,941.5,485.4z"/>
			</g>
			<path d="M1001.5,700.2c-0.7-2.4-7.6-24.1-16.5-37.4l-1.9-2.8c8.2-9.7,12.3-17.6,12.6-18.3l3.7-7.4l-3.3-7.5
				c-0.8-1.8-19.5-43.5-42.9-67.6l-6.4-6.6l-42,7.1l-12.6-33l-8.6-2.3c-1.3-0.3-31.1-8.3-69.6-8.3h-15.4l-0.8,6.4l-25.3-3.3H646.8
				l-25.3,3.3l-0.8-6.4h-15.4c-38.5,0-68.3,8-69.6,8.3l-8.6,2.3l-12.6,33l-42-7.1l-6.4,6.6c-23.4,24.1-42.1,65.8-42.9,67.6l-3.3,7.5
				l3.7,7.4c0.3,0.7,4.4,8.6,12.6,18.3l-1.9,2.8c-8.9,13.3-15.7,35-16.5,37.4l-4,12.9l11.5,7.1c24.5,15.1,48.4,19.8,68.6,19.8
				c31,0,53-11,54.5-11.7l6.5-3.3l7.2-22.8l1.3-4.1c7.6,16.3,21.7,43,37.8,56.6l7.7,6.5l100.6-36.9l100.6,36.9l7.7-6.5
				c16.1-13.6,30.2-40.3,37.8-56.6l8.5,26.9l6.5,3.3c1.5,0.8,23.5,11.7,54.5,11.7c20.2,0,44.1-4.6,68.6-19.8l11.5-7.1L1001.5,700.2z
				"/>
			<path class="st6" d="M870,684.5c0,0-14.5-33.1-25-43.5c-10.4-10.4-60.9-29-60.9-29s22.6-16.8,30.2-78.4c36.6,0,65,7.7,65,7.7
				l14.5,38.1l47-8c21.5,22.2,39.5,62.6,39.5,62.6s-14.5,29-47.6,41.8C899.6,688.5,870,684.5,870,684.5z M800.9,540.5l-20.9-2.7
				l-32.5,39.3l38.9,9.9C786.4,586.9,797.1,573.6,800.9,540.5z M835.1,652c5.8,10.1,10.4,26.3,10.4,26.3s-18.6,46.1-38.7,63.1
				l-97.1-35.6l-97.1,35.6c-20.1-17-38.7-63.1-38.7-63.1s4.6-16.3,10.4-26.3s62.1-32.9,62.1-32.9c25.7-1.5,63.3,5,63.3,5
				s37.6-6.6,63.3-5C773,619.1,829.3,641.9,835.1,652z M970.6,672.5c-50.7,36.8-96.7,24.4-96.7,24.4l5,15.9c0,0,51.5,26.3,106-7.4
				C984.9,705.4,978.3,684.1,970.6,672.5z M635.5,611.9c0,0-22.6-16.8-30.2-78.4c-36.6,0-65,7.7-65,7.7l-14.5,38.1l-47-8
				c-21.5,22.2-39.5,62.6-39.5,62.6s14.5,29,47.6,41.8c33.1,12.8,62.7,8.7,62.7,8.7s14.5-33.1,25-43.5
				C585,630.5,635.5,611.9,635.5,611.9z M672,577.1l-32.5-39.3l-20.9,2.7c3.8,33.1,14.5,46.4,14.5,46.4L672,577.1z M448.9,672.5
				c-7.7,11.6-14.3,32.9-14.3,32.9c54.6,33.7,106,7.4,106,7.4l5-15.9C545.7,696.8,499.6,709.2,448.9,672.5z"/>
			<path class="st5" d="M638.9,537.9l-20.3,2.6c0.3,2.6,0.6,5,1,7.4c8.6-1.6,19.3-1.6,19.3-1.6V537.9z"/>
			<path class="st5" d="M780.6,537.9l20.3,2.6c-0.3,2.6-0.6,5-1,7.4c-8.6-1.6-19.3-1.6-19.3-1.6V537.9z"/>
			<path class="st5" d="M814.2,533.5c17.6,13.9,22.1,35.6,22.9,57.4c0,0,33.8,33.8,82,7.4c0,0-16.7,24.9-43.4,27.8
				c-26.7,2.9-61.5-25-61.5-25V533.5z"/>
			<g>
				<path class="st3" d="M786.4,586.9l-38.9-9.9l15.5-18.7c7.7,0.8,24.4,2.1,32.1-0.5c1.1-0.4,2.2-1,3.3-1.7
					C793.7,577.9,786.4,586.9,786.4,586.9z"/>
				<path class="st3" d="M825.5,599.3c0,0,11.2,5,24,10.3l-65.4,2.3c0,0,22.6-16.8,30.2-78.4C835.1,569.5,825.5,599.3,825.5,599.3z"
					/>
			</g>
			<path class="st3" d="M618.6,713.9l78.7-28.8l-76.1,10.9c0,0-24.7-16.9-35.7-45.4c-0.4,0.5-0.8,1-1.1,1.4
				c-5.8,10.1-10.4,26.3-10.4,26.3C579.3,692.6,618.6,713.9,618.6,713.9z"/>
			<path class="st5" d="M605.3,533.5c-17.6,13.9-22.1,35.6-22.9,57.4c0,0-33.8,33.8-82,7.4c0,0,16.7,24.9,43.4,27.8
				c26.7,2.9,61.5-25,61.5-25V533.5z"/>
			<path class="st5" d="M570.1,535.8c0,0,23.1-1.9,29.8,3.3l5.4-5.5C605.3,533.5,587.7,533.3,570.1,535.8z"/>
			<g>
				<path class="st3" d="M633.1,586.9l38.9-9.9l-15.5-18.7c-7.7,0.8-24.4,2.1-32.1-0.5c-1.1-0.4-2.2-1-3.3-1.7
					C625.8,577.9,633.1,586.9,633.1,586.9z"/>
				<path class="st3" d="M594,599.3c0,0-11.2,5-24,10.3l65.4,2.3c0,0-22.6-16.8-30.2-78.4C584.4,569.5,594,599.3,594,599.3z"/>
			</g>
			<path class="st7" d="M540.6,712.7l5-15.9c0,0-10.2,2.7-26.4,1.8c-1.4,6.3-4.1,18.3-4.8,19.3c-0.5,0.7-3.3,2.2-6,3.7
				C528,719.2,540.6,712.7,540.6,712.7z"/>
			<path class="st7" d="M633.1,586.9l38.9-9.9l-9.8-11.9c-12.8,3.8-26.7,8.1-26.7,8.1s-5.5,0.4-11-4.9
				C628.6,581.3,633.1,586.9,633.1,586.9z"/>
			<path class="st7" d="M786.4,586.9l-38.9-9.9l9.8-11.9c12.8,3.8,26.7,8.1,26.7,8.1s5.5,0.4,11-4.9
				C790.9,581.3,786.4,586.9,786.4,586.9z"/>
			<path class="st7" d="M565.9,536.4c-15.7,2.2-25.6,4.9-25.6,4.9l-14.5,38.1C525.7,579.4,542.6,552.7,565.9,536.4z"/>
			<path d="M763,525.4l-10.6,3.2c0,0-2.5,10-4.9,15.2c0,0,5.4-4.9,8-12.3L763,525.4z"/>
			<path d="M656.5,525.4l10.6,3.2c0,0,2.5,10,4.9,15.2c0,0-5.4-4.9-8-12.3L656.5,525.4z"/>
			<g>
				<path d="M699,407.1c-2.2-19.3-28.8-9.7-36.2-35.2c-7.4-25.5,42.5-55.3,127.2-24.8s72,77.2,54.6,99.9
					c-17.4,22.7-3.1,40.4,31,43.9c34.1,3.6,48.8,31.8,48.8,31.8s-20.1-20.7-51.9-15s-63.1,3.6-76.6-31.3s6.6-34.6,0.4-56.4
					c-6.2-21.9-52.9-38.9-62.2-37s5,16.2-11.7,24.4C705.7,415.7,699,407.1,699,407.1z"/>
				<path d="M784.4,505.8c0,0-0.9-6.3,0.3-9.6l0.1-0.2c0.1-0.2,0.2-0.4,0.3-0.6l1-2.6l-0.2-2.8c-0.1-1.9-0.3-3.9-0.5-5.8
					c0-0.4-0.1-0.8-0.1-1.2l-0.2-2.2c-0.5-4.8-1.1-9.5-1.7-13.8l-2-12.8l-3.5-2.3c-0.1-0.3-0.2-0.7-0.3-1l-0.2-0.5
					c-0.1-0.3-0.2-0.5-0.3-0.8l-0.2-0.5c-0.1-0.3-0.3-0.7-0.4-1.1l-0.2-0.4c-0.2-0.4-0.3-0.8-0.5-1.2l-0.2-0.5
					c-0.1-0.3-0.3-0.6-0.5-1l-0.2-0.5c-0.2-0.4-0.4-0.8-0.6-1.3l-0.2-0.4c-0.2-0.4-0.5-0.9-0.7-1.3l-0.3-0.6
					c-0.2-0.3-0.4-0.7-0.6-1.1l-0.3-0.5c-0.3-0.4-0.5-0.8-0.8-1.3l-0.3-0.5c-0.3-0.5-0.6-0.9-0.9-1.4l-0.4-0.6
					c-0.2-0.3-0.5-0.7-0.8-1.1l-0.4-0.5c-0.3-0.4-0.7-0.9-1.1-1.4l-0.3-0.3c-0.4-0.5-0.8-1-1.3-1.5c-0.2-0.2-0.3-0.4-0.5-0.6
					c-0.3-0.4-0.7-0.7-1-1c-0.2-0.2-0.4-0.4-0.6-0.6c-0.4-0.4-0.9-0.8-1.3-1.3c-2.9-2.7-6.2-5-9.7-7l-0.2-0.1
					c-0.6-0.3-1.3-0.7-1.9-1c-0.2-0.1-0.5-0.2-0.7-0.3l-0.3-0.2c-0.4-0.2-0.9-0.4-1.3-0.6c-0.8-0.3-1.6-0.7-2.5-1c-1-0.4-2-0.7-3-1
					l-2.9,0.1l-0.2-0.6c0,0,0,0,0-0.1l0-0.1c0,0,0,0,0-0.1l-1.1-2.4c-0.1-0.2-0.3-0.5-0.4-0.8l-0.3-0.5c-0.1-0.2-0.2-0.4-0.3-0.6
					l-0.5-0.8c-0.1-0.2-0.2-0.4-0.4-0.6l-0.1-0.2l-0.4-0.6c-0.1-0.2-0.2-0.4-0.4-0.6l-0.4-0.5l-0.1-0.1l-0.3-0.4
					c-0.1-0.2-0.3-0.4-0.4-0.5l-0.2-0.3c-0.1-0.2-0.3-0.4-0.5-0.6l-0.3-0.3l0,0l-0.8-0.9l-0.2-0.2c-0.5-0.5-1-1.1-1.5-1.6l-0.3-0.3
					c-0.3-0.3-0.5-0.5-0.8-0.8l-0.2-0.1l-6.9-5.2l-0.7-0.4c-7.7-4.3-17.2-4.3-25,0l-7.7,5.7c0,0,0,0,0,0l-0.1,0.1
					c-0.3,0.3-0.6,0.5-0.8,0.7c-0.1,0.1-0.2,0.2-0.3,0.3c-0.7,0.7-1.3,1.4-1.9,2l-0.9,1.1c-0.2,0.2-0.3,0.4-0.5,0.6L685,407
					c-0.1,0.2-0.3,0.4-0.4,0.5l-0.8,1.1c-0.1,0.2-0.3,0.4-0.4,0.6l-0.4,0.6l-0.1,0.1c-0.1,0.2-0.3,0.4-0.4,0.7l-0.4,0.7
					c-0.1,0.2-0.2,0.4-0.3,0.6l-0.3,0.5c-0.1,0.3-0.3,0.5-0.4,0.8l-1.2,2.5c0,0,0,0.1,0,0.1l-0.2,0.6l0,0l0,0.1l0.2,0.1l-3.1-0.2
					c-1,0.3-2,0.6-3,1c-0.9,0.3-1.7,0.6-2.5,1c-0.5,0.2-0.9,0.4-1.4,0.6l-0.3,0.1c-0.2,0.1-0.5,0.2-0.7,0.3c-0.7,0.3-1.3,0.7-1.9,1
					l-0.2,0.1c-3.5,1.9-6.7,4.3-9.7,7c-0.4,0.4-0.9,0.8-1.3,1.3c-0.2,0.2-0.4,0.4-0.6,0.6c-0.3,0.3-0.7,0.7-1,1.1
					c-0.2,0.2-0.3,0.3-0.5,0.5c-0.4,0.5-0.9,1-1.3,1.5l-0.3,0.4c-0.3,0.4-0.7,0.9-1,1.3l-0.5,0.6c-0.3,0.3-0.5,0.7-0.8,1l-0.4,0.6
					c-0.3,0.5-0.6,0.9-1,1.4l-0.3,0.4c-0.3,0.4-0.5,0.8-0.8,1.2l-0.4,0.6c-0.2,0.3-0.4,0.7-0.6,1l-0.3,0.6c-0.2,0.4-0.5,0.9-0.7,1.3
					l-0.2,0.5c-0.2,0.4-0.4,0.8-0.6,1.2l-0.3,0.6c-0.1,0.3-0.3,0.6-0.4,0.9l-0.2,0.5c-0.2,0.4-0.3,0.8-0.5,1.2l-0.2,0.4
					c-0.1,0.4-0.3,0.7-0.4,1.1l-0.2,0.5c-0.1,0.3-0.2,0.6-0.3,0.8l-0.2,0.5c-0.1,0.3-0.2,0.7-0.4,1l-3.5,2.2l-2,12.4l-0.1,0.4
					c-0.7,4.3-1.2,8.9-1.7,13.8l-0.2,2.2c0,0.4-0.1,0.8-0.1,1.2c-0.2,1.9-0.3,3.9-0.5,5.8l-0.2,2.8l1,2.6c0.1,0.2,0.2,0.4,0.3,0.7
					l0.1,0.2c1.2,3.2,0.3,9.5,0.3,9.5c-0.1,0.8-2.5,21-2.1,40.5l0.1,4.5l2.8,3.4c0.7,0.8,1.4,1.7,2.1,2.5l0.7,0.7
					c0.5,0.6,1.1,1.2,1.6,1.8l0.7,0.8c0.7,0.8,1.5,1.5,2.2,2.3l0.1,0.1c0.8,0.8,1.6,1.6,2.4,2.5l0.8,0.8c0.6,0.6,1.2,1.2,1.8,1.8
					l0.8,0.7c0.8,0.7,1.6,1.5,2.4,2.2l0.2,0.2c0.9,0.8,1.7,1.6,2.6,2.4l0.8,0.7c0.6,0.6,1.3,1.1,1.9,1.7l0.8,0.7
					c0.8,0.7,1.6,1.4,2.5,2.2l0.1,0.1c0.9,0.8,1.8,1.5,2.6,2.2l0.7,0.6c0.7,0.6,1.3,1.1,2,1.7l0.7,0.6c1.7,1.4,3.4,2.8,5.1,4.2
					l0.4,0.3c0.7,0.6,1.4,1.1,2.1,1.7l0.4,0.3c8.3,6.6,14.4,11,14.7,11.2l15.2,11l5.2,3.8l5.2-3.8l15.2-11
					c0.3-0.2,6.4-4.6,14.7-11.2l0.4-0.3c0.7-0.5,1.4-1.1,2.1-1.7l0.4-0.3c1.6-1.3,3.3-2.7,5.1-4.1l0.7-0.6c0.7-0.6,1.3-1.1,2-1.7
					l0.7-0.6c0.9-0.7,1.8-1.5,2.7-2.3l0.1-0.1c0.8-0.7,1.6-1.4,2.5-2.1l0.8-0.7c0.6-0.6,1.3-1.1,1.9-1.7l0.8-0.7
					c0.9-0.8,1.7-1.6,2.6-2.4l0.2-0.2c0.8-0.7,1.6-1.5,2.4-2.2l0.8-0.8c0.6-0.6,1.2-1.2,1.8-1.8l0.8-0.8c0.8-0.8,1.6-1.6,2.4-2.5
					l0.1-0.1c0.8-0.8,1.5-1.6,2.3-2.4l0.7-0.7c0.6-0.6,1.1-1.2,1.7-1.8l0.7-0.7c0.7-0.8,1.5-1.7,2.1-2.5l2.8-3.4l0.1-4.5
					C786.8,526.9,784.5,506.7,784.4,505.8z"/>
				<g>
					<path class="st6" d="M771.7,507.4l-9.1,14.6l-18.4,6.1c-1.3,26.7-7.8,32.5-7.8,32.5c2.9-13.2,1.6-37.5,1.6-37.5l21.4-7.2
						c0,0,7-7.4,13.6-24.9c-0.5-7.5-1.3-15-2.4-22.3c0,0-18.1,2.5-26.3,4.6c-5,1.2-9.9,2.7-14.8,4.4l0,0l-19.7-25.5L690,477.6l0,0
						c-4.9-1.7-9.8-3.1-14.8-4.4c-8.2-2.1-26.3-4.6-26.3-4.6c-1.1,7.2-1.9,14.8-2.4,22.3c6.6,17.6,13.6,24.9,13.6,24.9l21.4,7.2
						c0,0-1.3,24.4,1.6,37.5c0,0-6.5-5.8-7.8-32.5l-18.4-6.1l-9.1-14.6c0,0-2.4,19.9-2.1,38.8c16,19.4,51,44.8,51,44.8
						c-5.1-21.5-1.9-79.1-1.9-79.1c-15.5-2.8-29.9-8.3-29.9-8.3l-3.6-5.9l-3-0.7c0.4,4.5,3.1,11.8,3.1,11.8
						c-3.1-3.3-8.4-15.1-8.4-15.1h5.8c30.2,1.2,50.9,10.4,50.9,10.4s20.6-9.3,50.9-10.4h5.8c0,0-5.3,11.8-8.4,15.1
						c0,0,2.7-7.3,3.1-11.8l-3,0.7l-3.6,5.9c0,0-14.4,5.5-29.9,8.3c0,0,3.2,57.7-1.9,79.1c0,0,35-25.3,51-44.8
						C774,527.3,771.7,507.4,771.7,507.4z M709.8,499.2l-13.5-13l13.5-13l13.5,13L709.8,499.2z"/>
					<path class="st6" d="M727.7,420.7c0,0-2.9-8.1-11.5-13.1c-4-2.3-8.9-2.3-12.9,0c-8.7,5-11.5,13.1-11.5,13.1
						c2.6-1.6,5.7-3.1,8.6-4.3c6-2.6,12.8-2.6,18.8,0C722.1,417.6,725.2,419.1,727.7,420.7z"/>
					<path class="st6" d="M704.8,420.5c-32,12.8-47.1,41.7-47.1,41.7c9.7,1.2,20.6,3.6,28.5,5.7l23.5-29.2l23.5,29.2
						c7.9-2.1,18.8-4.6,28.5-5.7c0,0-15.1-29-47.1-41.7C711.5,419.3,708,419.3,704.8,420.5z"/>
					<path class="st6" d="M767.1,461.3c0,0-4.3-25.9-28-32.8C759.4,443.4,767.1,461.3,767.1,461.3z"/>
					<path class="st6" d="M680.4,428.5c-23.7,7-28,32.8-28,32.8S660.1,443.4,680.4,428.5z"/>
				</g>
				<g>
					<path class="st5" d="M724.6,511.8l4.3,3.8l0-0.3l10.2-1.7c0,0,4.7-0.9,8.5-7.7C741.9,507.7,733.4,510.2,724.6,511.8z"/>
					<path class="st5" d="M725.5,536.2c0.2,12.3,0.2,27.2-0.7,39.4l3.4-31.3l3.9-4.6l-0.6-7.7L725.5,536.2z"/>
					<path class="st5" d="M744.2,528c0,0,5-0.4,6.3,0s3.2,3.1,3.2,3.1l10.6-4.3l-1.7-4.9L744.2,528z"/>
					<path class="st5" d="M722.7,475.3c0,0-0.5-4.4-2.9-10.2l-10.1-13.1l-10.1,13.1c-2.4,5.8-2.9,10.2-2.9,10.2l-3.7,7.6l16.6-21.7
						l16.6,21.7L722.7,475.3z"/>
					<path class="st5" d="M765.8,469.4c-3.6,0.5-8.6,1.3-13.2,2.2c-2.6,2.5-13.5,7.2-13.5,7.2l28.8-5.6l2.7-4.3L765.8,469.4z"/>
					<path class="st5" d="M749.9,437.7c-0.4-1.4-1-3.1-1.9-5.3c-2-1.3-4.3-2.4-6.7-3.3l0.1,1C744.5,432.6,747.3,435.2,749.9,437.7z"
						/>
					<path class="st5" d="M680.4,513.6l10.2,1.7l0,0.3l4.3-3.8c-8.8-1.6-17.2-4.1-22.9-5.9C675.7,512.7,680.4,513.6,680.4,513.6z"/>
					<path class="st5" d="M694,536.2l-6-4.3l-0.6,7.7l3.9,4.6l3.4,31.3C693.8,563.4,693.8,548.5,694,536.2z"/>
					<path class="st5" d="M655.2,526.9l10.6,4.3c0,0,1.9-2.7,3.2-3.1c1.3-0.4,6.3,0,6.3,0l-18.4-6.1L655.2,526.9z"/>
					<path class="st5" d="M667,471.5c-4.6-0.8-9.6-1.6-13.2-2.2l-4.9-0.6l2.7,4.3l28.8,5.6C680.4,478.7,669.5,474,667,471.5z"/>
					<path class="st5" d="M678.3,429.2c-2.5,0.9-4.7,2-6.7,3.3c-0.9,2.2-1.5,3.9-1.9,5.3c2.5-2.5,5.4-5.1,8.6-7.6L678.3,429.2z"/>
					<path class="st5" d="M716.4,407.6C716.4,407.6,716.4,407.6,716.4,407.6c-4.1-2.4-9.2-2.4-13.2,0l-0.1,0
						C702.6,410.7,716.9,410.7,716.4,407.6z"/>
					<path class="st5" d="M704.6,445.1l5.1-6.4l5.1,6.4c6-2,10.2-7.3,10.2-13.5c0-2.6-0.8-5-2-7.1c-2.6-1.4-5.3-2.7-8.2-3.8
						c-3.3-1.3-7-1.3-10.3,0c-2.9,1.2-5.6,2.4-8.2,3.8c-1.3,2.1-2,4.5-2,7.1C694.4,437.8,698.7,443.2,704.6,445.1z"/>
				</g>
				<path class="st8" d="M745.1,498.2c-13.7,1.2-21.6,5.7-21.6,5.7l5.9,1.7c0,0,7.8-2,10.6-3.7C742.9,500.2,745.1,498.2,745.1,498.2
					z"/>
				<polygon class="st8" points="709.8,484.8 709.8,480.6 716.2,486.2 709.8,491.9 709.8,486.4 				"/>
				<path class="st8" d="M674.4,498.2c13.7,1.2,21.6,5.7,21.6,5.7l-5.9,1.7c0,0-7.8-2-10.6-3.7C676.6,500.2,674.4,498.2,674.4,498.2
					z"/>
				<polygon class="st8" points="709.8,484.8 709.8,480.6 703.3,486.2 709.8,491.9 709.8,486.4 				"/>
				<g>
					<polygon class="st3" points="748.5,519.6 741.8,518 736.5,520 724.6,511.8 729.1,518.2 738.1,523 					"/>
					<path class="st3" d="M744.2,528c-1.3,26.7-7.8,32.5-7.8,32.5s12.5-5.7,12.6-28.8C745.7,531.3,744.2,528,744.2,528z"/>
					<polygon class="st3" points="677.8,518 671.1,519.6 681.4,523 690.4,518.2 694.9,511.8 683.1,520 					"/>
					<path class="st3" d="M675.3,528c0,0-1.5,3.3-4.8,3.7c0,23.2,12.6,28.8,12.6,28.8S676.5,554.7,675.3,528z"/>
				</g>
				<g>
					<path class="st7" d="M761.1,496.9l-3,0.7l-3.6,5.9c-0.9,3.6-9.4,9-9.4,9l12.9-3.8C758,508.7,760.7,501.5,761.1,496.9z"/>
					<path class="st7" d="M771.7,507.4l-7.4,19.5l-15.3,4.8c0,0-1.1,16.5-12.2,28.5c-0.2,0.3-0.3,0.4-0.3,0.4
						c2.9-13.2,1.6-37.5,1.6-37.5l-9-4.8c0,0,3.7,31,0,60.8c0,0-3,6.5-6.4,11.9c0,0,0,0,0,0.1c0,0,35-25.3,51-44.8
						C774,527.3,771.7,507.4,771.7,507.4z"/>
					<path class="st7" d="M766.4,493.6C766.4,493.6,766.4,493.6,766.4,493.6l4-1.2l-0.3,0.2c0,0-5.8,13.8-12.2,19.9l-16.2,5.5
						l6.7,1.6l11-3.7c0,0,6.7-7.1,13.3-24.1l0,0c0.1-0.3,0.2-0.5,0.3-0.8c-0.5-7.4-1.3-14.9-2.4-22.1l-2.7,4.3
						c0,0-18.7,2.8-26.1,4.8s-15.4,5-15.4,5l-16.6-21.7L693.1,483c0,0-7.9-3-15.4-5c-7.5-2-26.1-4.8-26.1-4.8l-2.7-4.3
						c-1.1,7.2-1.9,14.7-2.4,22.1c0.1,0.3,0.2,0.5,0.3,0.8l0,0c6.5,17,13.3,24.1,13.3,24.1l11,3.7l6.7-1.6l-16.2-5.5
						c-6.4-6-12.2-19.9-12.2-19.9l-0.3-0.2l4,1.2c0,0,0,0,0,0h5.8c30.2,1.2,50.9,10.4,50.9,10.4s20.6-9.3,50.9-10.4H766.4z
						 M709.8,501.9l-14.9-14l1.4-1.7l13.5-13l13.5,13l1.4,1.7L709.8,501.9z"/>
					<path class="st7" d="M719.8,410c0.8,1.4,1.4,3.1,0.4,4.1c-1.4,1.4-6.4-0.1-9-0.9c3.2,1.2,11.1,4.2,16.5,7.5
						C727.7,420.7,725.7,414.8,719.8,410z"/>
					<path class="st7" d="M725.3,458.1l8,9.9c7.9-2.1,18.8-4.6,28.5-5.7c0,0-9.4-18.1-29.2-32C745.9,448.5,736,458.6,725.3,458.1z"
						/>
					<path class="st7" d="M767.1,461.3c0,0-2.4-14.6-13.7-24.8c1.2,2.2,2.4,5,3,8.3C763.9,454,767.1,461.3,767.1,461.3z"/>
					<path class="st7" d="M661.3,497.6l-3-0.7c0.4,4.5,3.1,11.8,3.1,11.8l12.9,3.8c0,0-8.5-5.4-9.4-9L661.3,497.6z"/>
					<path class="st7" d="M690.4,578.9c-3.7-29.8,0-60.8,0-60.8l-9,4.8c0,0-1.3,24.4,1.6,37.5c0,0-0.1-0.1-0.3-0.4
						c-11.1-12-12.2-28.5-12.2-28.5l-15.3-4.8l-7.4-19.5c0,0-2.4,19.9-2.1,38.8c16,19.4,51,44.8,51,44.8c0,0,0,0,0-0.1
						C693.4,585.5,690.4,578.9,690.4,578.9z"/>
					<path class="st7" d="M699.3,414.1c-1-1-0.4-2.7,0.4-4.1c-5.9,4.8-8,10.7-8,10.7c5.4-3.3,13.3-6.3,16.5-7.5
						C705.7,414,700.7,415.5,699.3,414.1z"/>
					<path class="st7" d="M686.3,468l8-9.9c-10.7,0.6-20.7-9.6-7.2-27.8c-19.8,13.9-29.2,32-29.2,32
						C667.5,463.4,678.3,465.8,686.3,468z"/>
					<path class="st7" d="M666.1,436.5c-11.2,10.2-13.7,24.8-13.7,24.8s3.1-7.3,10.7-16.5C663.7,441.5,664.9,438.7,666.1,436.5z"/>
				</g>
				<g>
					<path class="st2" d="M745.1,498.2c-13.7,1.2-21.6,5.7-21.6,5.7l5.9,1.7c0,0,7.8-2,10.6-3.7
						C742.9,500.2,745.1,498.2,745.1,498.2z"/>
					<path class="st2" d="M771.7,507.4c0.6,17.6-2.5,36.9-2.5,36.9s-20.7,25.2-36.7,39.3c11.6-9,30.6-24.5,41.2-37.4
						C774,527.3,771.7,507.4,771.7,507.4z"/>
					<path class="st2" d="M759.5,514l-21.4,9l21.4-7.2c0,0,7-7.4,13.6-24.9c-0.5-7.4-1.3-14.9-2.4-22.1l1.1,21.3
						C769.8,499.4,759.5,514,759.5,514z"/>
					<path class="st2" d="M767.1,461.3c0,0-1.1-6.7-5.4-14.2c0.8,3,1.3,5.4,1.6,7.3C765.9,458.6,767.1,461.3,767.1,461.3z"/>
					<path class="st2" d="M727.7,420.7c0,0-1.2-3.2-4.2-6.9c0,0,0,0,0,0s1.2,2.8,2,5.7C726.3,419.8,727.1,420.3,727.7,420.7z"/>
					<path class="st2" d="M761.7,462.3c0,0-5.9-11.4-18.2-23c0.3,0.3,9.8,11.2,11.8,23.9C757.5,462.8,759.6,462.5,761.7,462.3z"/>
					<path class="st2" d="M679.4,501.9c2.8,1.7,10.6,3.7,10.6,3.7l5.9-1.7c0,0-7.8-4.5-21.6-5.7
						C674.4,498.2,676.6,500.2,679.4,501.9z"/>
					<polygon class="st2" points="703.3,486.2 709.8,491.9 716.2,486.2 709.8,480.6 					"/>
					<path class="st2" d="M650.4,544.3c0,0-3.1-19.3-2.5-36.9c0,0-2.4,19.9-2.1,38.8c10.6,12.9,29.7,28.5,41.2,37.4
						C671.1,569.5,650.4,544.3,650.4,544.3z"/>
					<path class="st2" d="M681.4,523l-21.4-9c0,0-10.3-14.6-12.3-23.9l1.1-21.3c-1.1,7.2-1.9,14.7-2.4,22.1
						c6.6,17.6,13.6,24.9,13.6,24.9L681.4,523z"/>
					<path class="st2" d="M657.8,447.1c-4.2,7.5-5.4,14.2-5.4,14.2s1.2-2.7,3.8-6.9C656.5,452.5,657,450.1,657.8,447.1z"/>
					<path class="st2" d="M695.9,413.8C695.9,413.8,695.9,413.8,695.9,413.8c-3,3.7-4.2,6.9-4.2,6.9c0.7-0.4,1.4-0.8,2.2-1.2
						C694.8,416.6,695.9,413.8,695.9,413.8z"/>
					<path class="st2" d="M664.1,463.2c2-12.7,11.6-23.6,11.8-23.9c-12.3,11.6-18.2,23-18.2,23C659.9,462.5,662,462.8,664.1,463.2z"
						/>
				</g>
				<path class="st9" d="M719.2,416.3c0.3,0.1,0.7,0.3,1,0.5l0.2-1.5c0,0-5.7-2.9-10.6-2.9c-4.9,0-10.6,2.9-10.6,2.9l0.2,1.5
					c0.3-0.2,0.7-0.3,1-0.5C706.4,413.7,713.2,413.7,719.2,416.3z"/>
				<polygon class="st2" points="706.4,486.2 709.8,489.2 713.1,486.2 709.8,483.3 				"/>
				<polygon class="st5" points="703.3,486.2 706.4,486.2 709.8,483.3 709.8,480.6 				"/>
				<polygon points="709.8,491.9 709.8,489.2 713.1,486.2 716.2,486.2 				"/>
				<path d="M659.4,484l-1.7,0.9l-5.8-7.4l4.6,2.8c0,0,14.5-0.9,32.1,6l8.6,11.7l-10.6-8.7L659.4,484z"/>
				<path class="st10" d="M655.2,481.6c20.9,2,33.6,7.6,33.6,7.6l8.5,8.7l-10.2-6.9c0,0-12.2-4.1-29.2-6.2L655.2,481.6z"/>
				<path d="M760.1,484l1.7,0.9l5.8-7.4l-4.6,2.8c0,0-14.5-0.9-32.1,6l-8.6,11.7l10.6-8.7L760.1,484z"/>
				<path class="st10" d="M764.3,481.6c-20.9,2-33.6,7.6-33.6,7.6l-8.5,8.7l10.2-6.9c0,0,12.2-4.1,29.2-6.2L764.3,481.6z"/>
				<path class="st2" d="M734.3,345.9c-56-2.9-61.1,18.6-56,27c5.1,8.4,23.7,12.1,27,20.1c0,0,3-4.8-8-13.5
					c-11-8.7-2.1-24.7,35.2-23.2s84.9,24.9,92.2,49.5s-16.3,30.7-19.4,48.4c-3.2,17.7,9,35.9,26.4,41.7s36,3.3,36,3.3
					s-36.6,2.2-47.6-21.7c-11-23.9,7.5-38.2,7.5-38.2s-11.9,18.1-2,34.5c0,0-6.1-14.1,5.8-31.2c11.9-17.1,21.5-43.8-5.2-63.6
					C799.4,359.2,770.6,347.3,734.3,345.9z"/>
				<path class="st5" d="M820,477.5c-6.4-13.8-2.9-24.4,1.2-30.9c1.6-3,3.8-5.5,6.3-7.3c6.6-4.8,8.5-7.2,9.1-8.3
					c-0.3,1.2-1.1,3.7-2.1,6.6c10.1-17,15.8-40.7-8.4-58.6c-26.7-19.7-55.5-31.6-91.8-33.1c-54.1-2.8-60.7,17.1-56.5,26.1
					c1.8-10.5,15.3-18.8,15.3-18.8s-4.9,13.5-0.2,19.1c0,0-3.9-11.8,18.3-19.9c22.2-8.1,59.9-3.5,89.6,13.4
					c29.7,16.9,39.9,31.2,36.2,50.7c-3.7,19.5-16.4,12.7-24.2,36.2c-6.9,20.9,9.9,45.4,42,47c4.6,0.1,8.4-0.1,10.6-0.3
					c0.7-0.1,1.4-0.1,2.2-0.2C867.6,499.2,831.1,501.4,820,477.5z"/>
				<path d="M697.3,379.6c0,0-11.2-5.1-11.1-17.5c0-10.9,20.4-18.6,39.1-19.2l20.3,0.8c0,0-40.4,0-50.7,15.5
					C687.5,370.2,697.3,379.6,697.3,379.6z"/>
				<path d="M810.5,375.5c33.4,23.5,14.7,52.2,4.1,62.2l-0.4-20.5C814.2,417.2,833.7,397,810.5,375.5z"/>
			</g>
			<path class="st6" d="M531.4,538.9v52.3L483,562.4c0,0-1.9-42,10.8-69.7l0,0C494.4,493.8,511.9,528.3,531.4,538.9z"/>
			<path class="st5" d="M519.9,560.5l5.8,18.8l-10.4-14.5c0,0-19.2-15.1-22.4-25.9c-3.3-10.8,1-46.3,1-46.3l0,0
				c0.5,1.1,18.1,35.6,37.5,46.2L519.9,560.5z"/>
			<path class="st6" d="M888.2,591.2l48.4-28.8c0,0,1.9-42-10.8-69.7c0,0-17.8,35.4-37.5,46.3V591.2z"/>
			<path class="st7" d="M493.8,492.7C481,520.3,483,562.4,483,562.4l32.3,2.5C494.1,542.6,493.8,492.7,493.8,492.7z"/>
			<polygon class="st3" points="515.3,564.9 525.7,579.4 505.9,576 483,562.4 			"/>
			<g>
				<path class="st7" d="M448.9,672.5c-7.7,11.6-14.3,32.9-14.3,32.9c11.5,7.1,22.8,11.5,33.5,14.1c-5.7-3.3-5.7-5.6-5.7-5.6
					l9.7-27.5C464.7,682.8,456.9,678.2,448.9,672.5z"/>
				<path class="st7" d="M478.7,571.4c-21.5,22.2-39.5,62.6-39.5,62.6s14.5,29,47.6,41.8c33.1,12.8,62.7,8.7,62.7,8.7
					s14.5-33.1,25-43.5c10.4-10.4,60.9-29,60.9-29s-55.7-7.5-65.4-2.3C515.3,638.7,478.7,571.4,478.7,571.4z"/>
			</g>
			<path class="st6" d="M500.3,644.7c0,0,16.8,29.7,54.9,27.8l7.2-13.8C562.4,658.6,528.8,667.6,500.3,644.7z"/>
			<path d="M500.3,644.7c44,20.9,78.8-7.3,78.8-7.3l-9.8,17.9C569.3,655.2,535.8,675.2,500.3,644.7z"/>
			<path class="st7" d="M722.2,685.1l-12.5,7.6l-12.5-7.6l-78.7,22c-13.4-3.5-44.7-28.8-44.7-28.8s18.6,46.1,38.7,63.1l97.1-35.6
				l97.1,35.6c20.1-17,38.7-63.1,38.7-63.1s-31.3,25.3-44.7,28.8L722.2,685.1z"/>
			<g>
				<path class="st2" d="M439.3,634c0,0,14.5,29,47.6,41.8c7,2.7,13.8,4.6,20.2,6c-46.1-13.1-58.5-45.3-58.5-45.3
					c4.6-23.8,17.6-47.4,25.1-59.4C454.5,599.8,439.3,634,439.3,634z"/>
				<path class="st2" d="M455.7,677.1c-2.2-1.5-4.5-3-6.8-4.6c-7.7,11.6-14.3,32.9-14.3,32.9c4,2.5,8,4.6,12,6.5
					c-2.6-3.6-2.5-6.5-2.5-6.5C447.5,692,453.5,680.8,455.7,677.1z"/>
			</g>
			<path class="st2" d="M491.2,563c-0.5,0-4.6-46.8,0-63.8c-9.8,27.3-8.2,63.2-8.2,63.2l16.1,9.6C499.1,572,491.7,563,491.2,563z"/>
			<path class="st3" d="M800.9,713.9l-78.7-28.8l76.1,10.9c0,0,24.7-16.9,35.7-45.4c0.4,0.5,0.8,1,1.1,1.4
				c5.8,10.1,10.4,26.3,10.4,26.3C840.2,692.6,800.9,713.9,800.9,713.9z"/>
			<path class="st5" d="M899.6,560.5l-5.8,18.8l10.4-14.5c0,0,19.2-15.1,22.4-25.9c3.3-10.8-1-46.3-1-46.3l0,0
				c-0.5,1.1-18.1,35.6-37.5,46.2L899.6,560.5z"/>
			<path class="st7" d="M925.7,492.7c12.8,27.7,10.8,69.7,10.8,69.7l-32.3,2.5C925.4,542.6,925.7,492.7,925.7,492.7z"/>
			<polygon class="st3" points="904.2,564.9 893.8,579.4 913.6,576 936.5,562.4 			"/>
			<g>
				<path class="st7" d="M970.6,672.5c7.7,11.6,14.3,32.9,14.3,32.9c-11.5,7.1-22.8,11.5-33.5,14.1c5.7-3.3,5.7-5.6,5.7-5.6
					l-9.7-27.5C954.8,682.8,962.7,678.2,970.6,672.5z"/>
				<path class="st7" d="M940.8,571.4c21.5,22.2,39.5,62.6,39.5,62.6s-14.5,29-47.6,41.8c-33.1,12.8-62.7,8.7-62.7,8.7
					s-14.5-33.1-25-43.5c-10.4-10.4-60.9-29-60.9-29s55.7-7.5,65.4-2.3C904.2,638.7,940.8,571.4,940.8,571.4z"/>
			</g>
			<path class="st2" d="M928.3,563c0.5,0,4.6-46.8,0-63.8c9.8,27.3,8.2,63.2,8.2,63.2l-16.1,9.6C920.4,572,927.8,563,928.3,563z"/>
			<path class="st5" d="M773,619.1c-25.7-1.5-63.3,5-63.3,5s-37.6-6.6-63.3-5c0,0-34,13.8-51.8,24.6c25.8-10.5,53.6-17.4,53.6-17.4
				l61.5,23.2l61.5-23.2c0,0,27.8,6.9,53.6,17.4C807,632.8,773,619.1,773,619.1z"/>
			<polygon class="st6" points="709.8,686 649.7,657.2 709.8,705.7 769.8,657.2 			"/>
			<polygon class="st7" points="709.8,669.7 649.7,657.2 709.8,678.3 769.8,657.2 			"/>
			<polygon class="st5" points="709.8,689.5 681,673.3 709.8,702 738.5,673.3 			"/>
			<polygon points="709.8,678.3 649.7,657.2 709.8,692.7 769.8,657.2 			"/>
			<path class="st6" d="M919.2,644.7c0,0-16.8,29.7-54.9,27.8l-7.2-13.8C857.1,658.6,890.7,667.6,919.2,644.7z"/>
			<path d="M919.2,644.7c-44,20.9-78.8-7.3-78.8-7.3l9.8,17.9C850.2,655.2,883.7,675.2,919.2,644.7z"/>
			<g>
				<path class="st2" d="M980.3,634c0,0-14.5,29-47.6,41.8c-7,2.7-13.8,4.6-20.2,6c46.1-13.1,58.5-45.3,58.5-45.3
					c-4.6-23.8-17.6-47.4-25.1-59.4C965,599.8,980.3,634,980.3,634z"/>
				<path class="st2" d="M963.8,677.1c2.2-1.5,4.5-3,6.8-4.6c7.7,11.6,14.3,32.9,14.3,32.9c-4,2.5-8,4.6-12,6.5
					c2.6-3.6,2.5-6.5,2.5-6.5C972,692,966,680.8,963.8,677.1z"/>
			</g>
			<g>
				<path d="M988.2,788.2c-18.6-38.1-61.1-60.8-62.9-61.7l-5.5-2.9l-5.9,1.9c-0.6,0.2-64.3,20.6-123.8,29.3l-14.8,2.2l10.2,61.9
					l-7.6,9.6l12.2,10.3l163.9,19.4c18.1-7.8,43.7-50.7,43.7-50.7L988.2,788.2z"/>
				<path d="M629.4,754.9c-59.6-8.7-123.2-29.1-123.8-29.3l-5.9-1.9l-5.5,2.9c-1.8,0.9-44.4,23.6-62.9,61.7l-9.4,19.3
					c0,0,25.5,42.9,43.7,50.7l163.9-19.4l12.2-10.3L634,819l10.2-61.9L629.4,754.9z"/>
			</g>
			<path class="st6" d="M503.8,740.4c0,0-9.8,5.1-21.6,14.4c0,0,0,0,0,0c-11.8,9.3-25.7,22.8-33.8,39.6c0,0,0,0,0,0s3.5,0.3,9.9,0.8
				c15,1.2,45.6,3.5,82.4,5.7c52.1,3.1,80.6,7.1,80.6,7.1l6.3-38.4C567.2,760.9,503.8,740.4,503.8,740.4z M915.7,740.4
				c0,0-63.4,20.5-123.8,29.3l6.3,38.4c0,0,28.5-4,80.6-7.1c52.4-3.1,92.3-6.5,92.3-6.5C954.8,760.9,915.7,740.4,915.7,740.4z"/>
			<path class="st7" d="M971.1,794.4c0,0-39.9,3.4-92.3,6.5c-52.1,3.1-80.6,7.1-80.6,7.1l-6.1-37.1c0.6-0.7,1.1-1.2,1.7-1.6
				c1.1-0.2,2.2-0.3,3.3-0.5c0.2,0.1,0.3,0.1,0.5,0.2c12.7,7.2,19.2,22.5,19.2,22.5l117.5-17.4c0,0-3.2-18.3-18.7-33.8
				C915.7,740.4,954.8,760.9,971.1,794.4z"/>
			<path class="st7" d="M448.4,794.4c0,0,39.9,3.4,92.3,6.5c52.1,3.1,80.6,7.1,80.6,7.1l6.1-37.1c-0.6-0.7-1.1-1.2-1.7-1.6
				c-1.1-0.2-2.2-0.3-3.3-0.5c-0.2,0.1-0.3,0.1-0.5,0.2c-12.7,7.2-19.2,22.5-19.2,22.5l-117.5-17.4c0,0,3.2-18.3,18.7-33.8
				C503.8,740.4,464.7,760.9,448.4,794.4z"/>
			<path d="M810,799.8c-0.9-13.8-9.8-40.7-37.3-43.3l-0.3,0c-11-0.8-27.2-2.4-27.2-2.4c-3.2-1.2-6.1-1.9-8.4-2.4l0-0.2h0l-0.8-12.8
				l-1-15.7c3.9-4.1,9.1-10.2,12.6-17l2.9-5.8l-2.8-5.8c-0.4-0.8-10.2-20.9-29.9-36.2l-8-6.3l-8,6.3c-19.7,15.3-29.5,35.4-29.9,36.2
				l-2.8,5.8l2.9,5.8c3.4,6.8,8.7,12.9,12.6,17l-1.5,24.3l-0.3,4.2h0l0,0.2c-2.3,0.5-5.2,1.2-8.4,2.4c0,0-16.2,1.6-27.2,2.4l-0.3,0
				c-27.5,2.6-36.5,29.5-37.3,43.3c0,0-2.5,12,5.5,24.1c8,12.1,56.2,25.7,56.2,25.7l19.1-0.5c1.4,0,2.8-0.1,4-0.1l-1.1,4.1l19.6-2.8
				c1.7-0.2,3.4-0.8,5.1-1.6c2.6,0,5.6-0.6,9.3-1.4l-2,1.7l23.1,0.6c0,0,48.1-13.6,56.2-25.7C812.5,811.7,810,799.8,810,799.8z"/>
			<path class="st2" d="M709.8,702.4c-2.9-2-5.2-6-5.2-6c1.5-2.6,5.2-6.9,5.2-6.9s3.6,4.2,5.2,6.9
				C714.9,696.4,712.7,700.4,709.8,702.4z"/>
			<path class="st6" d="M709.8,668.3c-17.5,13.6-26.2,31.6-26.2,31.6c4.8,9.4,14.7,18.1,14.7,18.1c4.2-2.6,11.5-2.3,11.5-2.3
				s7.3-0.3,11.5,2.3c0,0,9.9-8.7,14.7-18.1C735.9,699.9,727.3,682,709.8,668.3z M709.8,710.3c-6.5-4.5-11.5-13.3-11.5-13.3
				c3.4-5.9,11.5-15.3,11.5-15.3s8.1,9.4,11.5,15.3C721.2,697,716.3,705.8,709.8,710.3z M721,778.2c0.8,0.1,1.7,0.1,2.5,0.2
				c-6,4.9-13.8,5.7-13.8,5.7s-7.8-0.8-13.8-5.7c0.9,0,1.7-0.1,2.5-0.2c1.2-0.1,2.4-0.3,3.5-0.5l2.4-0.4c1.5,0.9,3,1.7,4.7,2.4
				c0.2,0.1,0.4,0.2,0.6,0.2c0.2-0.1,0.4-0.2,0.6-0.2c1.6-0.7,3.2-1.5,4.7-2.4l2.4,0.4C718.6,777.9,719.8,778.1,721,778.2z
				 M697.3,746c-0.4,0.2-0.8,0.4-1.2,0.6l0.6-10c0.6,0,1.2-0.1,1.8-0.1c1.2-0.1,2.4-0.3,3.5-0.5l2.4-0.4c1.5,0.9,3,1.7,4.7,2.4
				c0.2,0.1,0.4,0.2,0.6,0.2c0.2-0.1,0.4-0.2,0.6-0.2c1.6-0.7,3.2-1.5,4.7-2.4l2.4,0.4c1.2,0.2,2.3,0.4,3.5,0.5
				c0.6,0.1,1.2,0.1,1.8,0.1l0.6,10c-0.4-0.2-0.8-0.4-1.2-0.6c-1.1-0.5-2.3-1-3.5-1.3c-1.2-0.4-2.3-0.7-3.8-0.9l-1.1-0.2l-0.9,0.6
				c-1.1,0.8-2.2,1.6-3.2,2.6c-1-0.9-2.1-1.8-3.2-2.6l-0.9-0.6l-1.1,0.2c-1.4,0.2-2.5,0.5-3.8,0.9
				C699.6,745.1,698.5,745.5,697.3,746z M697.3,759.9c-0.7,0.3-1.4,0.7-2.1,1.1l0.6-10.5c0.9,0,1.8-0.1,2.7-0.2
				c1.2-0.1,2.4-0.3,3.5-0.5l2.4-0.4c1.5,0.9,3,1.7,4.7,2.4c0.2,0.1,0.4,0.2,0.6,0.2c0.2-0.1,0.4-0.2,0.6-0.2
				c1.6-0.7,3.2-1.5,4.7-2.4l2.4,0.4c1.2,0.2,2.3,0.4,3.5,0.5c0.9,0.1,1.8,0.1,2.7,0.2l0.6,10.5c-0.7-0.4-1.4-0.8-2.1-1.1
				c-1.1-0.5-2.3-1-3.5-1.3c-1.2-0.4-2.3-0.7-3.8-0.9l-1.1-0.2l-0.9,0.6c-1.1,0.8-2.2,1.6-3.2,2.6c-1-0.9-2.1-1.8-3.2-2.6l-0.9-0.6
				l-1.1,0.2c-1.4,0.2-2.5,0.5-3.8,0.9C699.6,759,698.5,759.4,697.3,759.9z M697.3,732.1c-0.1,0.1-0.2,0.1-0.3,0.2l0.4-5.9
				c8.5-3.4,12.4-2.9,12.4-2.9s3.9-0.5,12.4,2.9l0.4,5.9c-0.1-0.1-0.2-0.1-0.3-0.2c-1.1-0.5-2.3-1-3.5-1.3c-1.2-0.4-2.3-0.7-3.8-0.9
				l-1.1-0.2l-0.9,0.6c-1.1,0.8-2.2,1.6-3.2,2.6c-1-0.9-2.1-1.8-3.2-2.6l-0.9-0.6l-1.1,0.2c-1.4,0.2-2.5,0.5-3.8,0.9
				C699.6,731.2,698.5,731.6,697.3,732.1z M697.3,773.8c-1,0.5-2,1-3,1.6l0.7-11c1.2,0,2.4-0.1,3.5-0.2c1.2-0.1,2.4-0.3,3.5-0.5
				l2.4-0.4c1.5,0.9,3,1.7,4.7,2.4c0.2,0.1,0.4,0.2,0.6,0.2c0.2-0.1,0.4-0.2,0.6-0.2c1.6-0.7,3.2-1.5,4.7-2.4l2.4,0.4
				c1.2,0.2,2.3,0.4,3.5,0.5c1.1,0.1,2.3,0.2,3.5,0.2l0.7,11c-1-0.6-2-1.2-3-1.6c-1.1-0.5-2.3-1-3.5-1.3c-1.2-0.4-2.3-0.7-3.8-0.9
				l-1.1-0.2l-0.9,0.6c-1.1,0.8-2.2,1.6-3.2,2.6c-1-0.9-2.1-1.8-3.2-2.6l-0.9-0.6l-1.1,0.2c-1.4,0.2-2.5,0.5-3.8,0.9
				C699.6,772.9,698.5,773.3,697.3,773.8z M797,800.6l-6-7.2c0,0,0.7,9.8-8.8,17.2c-9.5,7.4-30,11.6-30,11.6
				c4.9-30.9-18.6-48.1-18.6-48.1s13.9-6.5,37.9-4.7C795.1,771.7,797,800.6,797,800.6z M730.4,763.9c0,0,4,0,10.3,2.3
				c-8.5,2.8-10.3,4.3-10.3,4.3 M648.1,769.4c23.9-1.8,37.9,4.7,37.9,4.7s-23.5,17.2-18.6,48.1c0,0-20.4-4.2-30-11.6
				c-9.5-7.4-8.8-17.2-8.8-17.2l-6,7.2C622.5,800.6,624.4,771.7,648.1,769.4z M713.9,793.4c0,0-0.5,4.9-4.1,6.5
				c-3.6,1.6-26.2-8.2-26.2-8.2s-1.3-4.6,3.8-11L713.9,793.4z M722.5,798.7c-2,3.7-6.3,2.3-6.3,2.3s1.6-1.9,2.3-6.5
				C718.5,794.6,724.5,795,722.5,798.7z M727.3,797.9c9.5,1.7,14.4,5.4,15.1,7.8c0.7,2.3,0.7,2.3,0.7,2.3s-17.6-4.3-18-5
				C724.8,802.2,727.3,797.9,727.3,797.9z M709.5,807c0,0,0.3,4.9-3.1,7c-3.4,2.1-27.1-4.2-27.1-4.2s-2-4.3,2.1-11.5L709.5,807z
				 M718.9,811c-1.5,4-5.9,3.2-5.9,3.2s1.3-2.1,1.3-6.8C714.3,807.5,720.3,807.1,718.9,811z M723.5,809.5c9.7,0.3,15.1,3.3,16.1,5.5
				c1,2.2,1,2.2,1,2.2s-18-1.6-18.5-2.3C721.6,814.1,723.5,809.5,723.5,809.5z M707.5,820.9c0,0,1.1,4.8-1.8,7.5
				c-2.9,2.7-27.4,0.6-27.4,0.6s-2.7-3.9,0.1-11.7L707.5,820.9z M705.9,833.1c0,0,0,1.2-2,2c-1.9,0.8-23.8,1-23.8,1s-2.7-0.9-0.2-3
				L705.9,833.1z M717.4,823.2c-0.7,4.2-5.3,4.2-5.3,4.2s0.9-2.3,0.1-6.9C712.3,820.5,718.1,819,717.4,823.2z M721.7,820.9
				c9.6-1.4,15.4,0.6,16.8,2.5s1.4,2,1.4,2s-18,1.6-18.6,1C720.7,825.8,721.7,820.9,721.7,820.9z M714.5,833.5
				c-0.1,3.3-3.6,3.8-3.6,3.8s0.5-1.8-0.6-5.3C710.3,831.9,714.7,830.2,714.5,833.5z M717.6,831.3c7.2-2.1,11.8-1.1,13.1,0.2
				c1.3,1.4,1.3,1.4,1.3,1.4s-13.6,3-14.1,2.6C717.3,835.1,717.6,831.3,717.6,831.3z M689.1,763.9v6.6c0,0-1.7-1.5-10.3-4.3
				C685.1,763.9,689.1,763.9,689.1,763.9z M731.9,781.6c4.2,1.2,4.8,7.4,4.8,7.4s-12,2.3-14.7,0.8S726.7,783.1,731.9,781.6z"/>
			<path d="M434.6,713.9c-12.8,33.3-15.1,56.6-15.1,56.6l15.1,24l48.4-59L434.6,713.9z"/>
			<path d="M984.9,713.9c12.8,33.3,15.1,56.6,15.1,56.6l-15.1,24l-48.4-59L984.9,713.9z"/>
			<path class="st2" d="M542.3,827.4l-73.7,1.8c0,0-18.6-8.6-20.2-34.7c0,0,0,0,0,0c8.2-16.8,22-30.3,33.8-39.6
				c-16.7,20.1-25,37.4-25.9,40.3c-0.1,0.3-0.1,0.4-0.1,0.4s3.4,20,17.3,28.9L542.3,827.4z"/>
			<path class="st2" d="M877.2,827.4l73.7,1.8c0,0,18.6-8.6,20.2-34.7c0,0,0,0,0,0c-8.2-16.8-22-30.3-33.8-39.6
				c16.7,20.1,25,37.4,25.9,40.3c0.1,0.3,0.1,0.4,0.1,0.4s-3.4,20-17.3,28.9L877.2,827.4z"/>
			<g>
				<path class="st5" d="M639.8,784c2.2,5.9,25.1,8.8,25.1,8.8s6.3-17.1,21.1-18.7c0,0-13.9-6.5-37.9-4.7c-4.6,0.4-8.4,1.9-11.5,4
					c3.2-0.5,6.8-0.9,10.1-0.7C646.7,772.7,637.6,778.1,639.8,784z"/>
				<path class="st5" d="M682.6,767.5l6.5-3.6c0,0-4,0-10.3,2.3C680.3,766.7,681.5,767.1,682.6,767.5z"/>
			</g>
			<g>
				<path class="st5" d="M627.4,771.4l0.3-1.7c-0.2,0-0.5-0.1-0.7-0.1C627.1,770.2,627.3,770.8,627.4,771.4z"/>
				<path class="st5" d="M611.2,767c-42-7.4-82.5-19.1-99.3-24.1c44,25.8,89,31.3,89,31.3S605.6,770,611.2,767z"/>
			</g>
			<g>
				<path class="st5" d="M779.7,784c-2.2,5.9-25.1,8.8-25.1,8.8s-6.3-17.1-21.1-18.7c0,0,13.9-6.5,37.9-4.7c4.6,0.4,8.4,1.9,11.5,4
					c-3.2-0.5-6.8-0.9-10.1-0.7C772.8,772.7,781.9,778.1,779.7,784z"/>
				<path class="st5" d="M736.9,767.5l-6.5-3.6c0,0,4,0,10.3,2.3C739.2,766.7,738,767.1,736.9,767.5z"/>
			</g>
			<g>
				<path class="st5" d="M792.1,771.4l-0.3-1.7c0.2,0,0.5-0.1,0.7-0.1C792.4,770.2,792.2,770.8,792.1,771.4z"/>
				<path class="st5" d="M808.3,767c42-7.4,82.5-19.1,99.3-24.1c-44,25.8-89,31.3-89,31.3S813.9,770,808.3,767z"/>
			</g>
			<g>
				<path class="st7" d="M718.2,812.3c-0.1-0.5-0.2-1.1-0.7-1.4c-0.6-0.4-2.1-0.5-3.4-0.2c-0.4,2.5-1.1,3.6-1.1,3.6
					S716.3,814.8,718.2,812.3z"/>
				<path class="st7" d="M683.6,791.7c0,0,22.5,9.8,26.2,8.2c0.4-0.2,0.7-0.4,1-0.6c0-0.6-0.1-1.5-1.2-2c-1.6-0.7-20.4-7.7-25.8-9.8
					C683.1,790.1,683.6,791.7,683.6,791.7z"/>
				<path class="st7" d="M721.4,800.2c0.2-0.5,0.3-0.9,0.1-1.1c-0.3-0.3-2.1-0.7-3.9-0.7c-0.7,1.9-1.4,2.7-1.4,2.7
					S719.2,802,721.4,800.2z"/>
				<path class="st7" d="M736.7,789c0,0-0.2-1.8-1-3.7c-3.4,1.5-8.2,4-12.1,4.9C727.8,790.7,736.7,789,736.7,789z"/>
				<path class="st7" d="M791.3,782.6c-0.3,3.9-1.3,5.4-1.3,5.4l-1.7-3.1c0,0-4.3,17.6-17,20.7c-12.8,3.1-13.9,2.9-13.9,2.9
					s-8.3-22.7-16.8-27.5c0,0,0,0,0,0c6.5,7.7,14.7,21.7,11.6,41.3c0,0,20.4-4.2,30-11.6c9.5-7.4,8.8-17.2,8.8-17.2l6,7.2
					C797,800.6,796.3,791.1,791.3,782.6z"/>
				<path class="st7" d="M675.9,785.1c-5.2,3.7-11.8,21.4-11.8,21.4s-2.7,0.3-14.9-5.1S632.4,784,632.4,784l-3.9,5.1
					c0,0-0.6-2.7,0.5-7.9c-5.7,8.8-6.4,19.3-6.4,19.3l6-7.2c0,0-0.7,9.8,8.8,17.2c9.5,7.4,30,11.6,30,11.6
					C664.8,805.8,670.2,793.2,675.9,785.1C675.9,785.1,675.9,785.1,675.9,785.1z"/>
				<path class="st7" d="M714.5,833.5c0.1-3.3-4.2-1.5-4.2-1.5c1.1,3.4,0.6,5.3,0.6,5.3S714.4,836.7,714.5,833.5z"/>
				<path class="st7" d="M706.4,814.1c0.4-0.2,0.7-0.5,1-0.8c0.1-0.9,0.2-2-0.2-2.3c-0.8-0.6-21.8-2.3-25.2-4.1
					c-1.7-0.9-2.3-2.6-2.5-4.1c-1.4,4.5-0.2,7.1-0.2,7.1S703.1,816.2,706.4,814.1z"/>
				<path class="st7" d="M717.6,831.3c0,0-0.3,3.8,0.2,4.2s14.1-2.6,14.1-2.6s0,0-1.3-1.4C729.4,830.1,724.7,829.2,717.6,831.3z"/>
				<path class="st7" d="M739.1,824.3c-0.7-0.4-1.6-0.9-3-1.2c-3.5-0.9-12.9-0.6-14.7-0.5c-0.3,1.5-0.5,3.5-0.1,3.8
					c0.6,0.6,18.6-1,18.6-1S739.9,825.4,739.1,824.3z"/>
				<path class="st7" d="M705.9,833.1l-26-0.1c-2.5,2.1,0.2,3,0.2,3s21.9-0.2,23.8-1C705.8,834.3,705.9,833.1,705.9,833.1z"/>
				<path class="st7" d="M740.6,805.5c-1.3-0.9-12-4-14.8-4.7c-0.5,1-0.8,1.9-0.7,2.2c0.4,0.8,18,5,18,5S742.2,806.5,740.6,805.5z"
					/>
				<path class="st7" d="M717.3,823.5c-0.2-0.3-0.4-0.6-0.9-0.7c-1-0.2-2.8,0.1-3.9,0.4c0.1,2.8-0.4,4.2-0.4,4.2
					S716.4,827.4,717.3,823.5z"/>
				<path class="st7" d="M722.7,811.8c-0.4,1.3-0.8,2.7-0.6,3c0.5,0.7,18.5,2.3,18.5,2.3s0,0-0.4-0.9c-0.7-0.5-1.6-1.2-2.9-1.8
					C735.2,813.6,726,812.3,722.7,811.8z"/>
				<path class="st7" d="M705.7,828.4c0.4-0.4,0.8-0.8,1-1.3c-0.2-0.9-0.6-2-1.5-2c-1.5,0-14,0-20.2-1.3c-6.2-1.3-6.7-6.6-6.7-6.6
					c-2.8,7.8-0.1,11.7-0.1,11.7S702.7,831.1,705.7,828.4z"/>
			</g>
			<path class="st2" d="M573.9,678.3c11.2,24,41.4,57.3,41.4,57.3l41.2-10.3l-45.3,21.6C611.2,746.8,583.2,715,573.9,678.3z"/>
			<path class="st2" d="M562.3,702.1c15.7,35.8,33.6,47.4,33.6,47.4S565.1,742.4,562.3,702.1z"/>
			<path class="st2" d="M560,729.3c2.7,7.7,6.8,12,6.8,12S559.2,739.2,560,729.3z"/>
			<path class="st2" d="M845.6,678.3c-11.2,24-41.4,57.3-41.4,57.3L763,725.3l45.3,21.6C808.3,746.8,836.3,715,845.6,678.3z"/>
			<path class="st2" d="M857.2,702.1c-15.7,35.8-33.6,47.4-33.6,47.4S854.4,742.4,857.2,702.1z"/>
			<path class="st2" d="M859.5,729.3c-2.7,7.7-6.8,12-6.8,12S860.3,739.2,859.5,729.3z"/>
			<g>
				<path class="st7" d="M695.2,761c0.7-0.4,1.4-0.8,2.1-1.1c1.1-0.5,2.3-1,3.5-1.3c1.2-0.4,2.3-0.7,3.8-0.9l1.1-0.2l0.9,0.6
					c1.1,0.8,2.2,1.6,3.2,2.6c1-0.9,2.1-1.8,3.2-2.6l0.9-0.6l1.1,0.2c1.4,0.2,2.5,0.5,3.8,0.9c1.2,0.4,2.3,0.8,3.5,1.3
					c0.7,0.3,1.4,0.7,2.1,1.1l-0.6-10.5c-0.9,0-1.8-0.1-2.7-0.2c-0.3,0-0.6-0.1-0.9-0.1l0.8,6.6l-7.5-1.7l-3.6,2.9l-3.6-2.9
					l-7.5,1.7l0.8-6.6c-0.3,0-0.6,0.1-0.9,0.1c-0.9,0.1-1.8,0.1-2.7,0.2L695.2,761z"/>
				<path class="st7" d="M697.3,746c1.1-0.5,2.3-1,3.5-1.3c1.2-0.4,2.3-0.7,3.8-0.9l1.1-0.2l0.9,0.6c1.1,0.8,2.2,1.6,3.2,2.6
					c1-0.9,2.1-1.8,3.2-2.6l0.9-0.6l1.1,0.2c1.4,0.2,2.5,0.5,3.8,0.9c1.2,0.4,2.3,0.8,3.5,1.3c0.4,0.2,0.8,0.4,1.2,0.6l-0.6-10
					l-3.9,1.6l0.4,4.5l-5.8-1.4l-3.7,2.8l-3.7-2.8l-5.8,1.4l0.4-4.5l-3.9-1.6l-0.6,10C696.5,746.4,696.9,746.2,697.3,746z"/>
				<path class="st7" d="M694.3,775.5c1-0.6,2-1.2,3-1.6c1.1-0.5,2.3-1,3.5-1.3c1.2-0.4,2.3-0.7,3.8-0.9l1.1-0.2l0.9,0.6
					c1.1,0.8,2.2,1.6,3.2,2.6c1-0.9,2.1-1.8,3.2-2.6l0.9-0.6l1.1,0.2c1.4,0.2,2.5,0.5,3.8,0.9c1.2,0.4,2.3,0.8,3.5,1.3
					c1,0.5,2,1,3,1.6l-0.7-11c-1.2,0-2.4-0.1-3.5-0.2c0,0,0,0,0,0l0.5,6.2c0,0-4.9-1.3-7.7-1.4l-4,2.3l-4-2.3
					c-2.8,0.1-7.7,1.4-7.7,1.4l0.5-6.2c0,0,0,0,0,0c-1.1,0.1-2.3,0.2-3.5,0.2L694.3,775.5z"/>
				<path class="st7" d="M697.4,726.4l-0.4,5.9c0.1-0.1,0.2-0.1,0.3-0.2c1.1-0.5,2.3-1,3.5-1.3c1.2-0.4,2.3-0.7,3.8-0.9l1.1-0.2
					l0.9,0.6c1.1,0.8,2.2,1.6,3.2,2.6c1-0.9,2.1-1.8,3.2-2.6l0.9-0.6l1.1,0.2c1.4,0.2,2.5,0.5,3.8,0.9c1.2,0.4,2.3,0.8,3.5,1.3
					c0.1,0.1,0.2,0.1,0.3,0.2l-0.4-5.9c-1.4-0.6-2.7-1-3.8-1.4l0.4,3.9l-5-0.8l-4,2.7l-4-2.7l-5,0.8l0.4-3.9
					C700,725.4,698.8,725.9,697.4,726.4z"/>
				<path class="st7" d="M709.8,715.7c0,0,7.3-0.3,11.5,2.3c0,0,9.9-8.7,14.7-18.1l-8.2-1.5C727.7,698.4,718.8,712.4,709.8,715.7z"
					/>
				<path class="st7" d="M698.3,718c4.2-2.6,11.5-2.3,11.5-2.3c-9.1-3.4-18-17.3-18-17.3l-8.2,1.5C688.4,709.4,698.3,718,698.3,718z
					"/>
				<path class="st7" d="M696,778.3c6,4.9,13.8,5.7,13.8,5.7s7.8-0.8,13.8-5.7c-0.9,0-1.7-0.1-2.5-0.2c-0.8-0.1-1.6-0.2-2.5-0.3
					c-1.6,1.2-5.4,3.7-8.8,4.1c-3.3-0.4-7.1-2.9-8.8-4.1c-0.8,0.1-1.6,0.2-2.5,0.3C697.7,778.3,696.9,778.3,696,778.3z"/>
				<path class="st7" d="M709.8,681.6c0,0,8.1,9.4,11.5,15.3l6.5,1.4c0,0-8.1-14.2-18-21.7c-9.9,7.4-18,21.7-18,21.7l6.5-1.4
					C701.7,691.1,709.8,681.6,709.8,681.6z"/>
			</g>
			<g>
				<path class="st5" d="M709.8,714.5c0,0,7-6.2,6.9-10.9c-1.9,2.4-4.2,4.9-6.9,6.7c-2.6-1.8-5-4.3-6.9-6.7
					C702.7,708.3,709.8,714.5,709.8,714.5z"/>
				<path class="st5" d="M706.3,725.7l3.4,0.9l3.4-0.9l2.5,0.4c0,0,0.1-0.9,0.2-1.9c-4.2-1.1-6.2-0.9-6.2-0.9s-2-0.2-6.2,0.9
					c0.1,0.9,0.2,1.9,0.2,1.9L706.3,725.7z"/>
				<path class="st5" d="M709.8,678.3l18,20.1c-2.4-7.3-7.5-13.9-7.5-13.9s0.5-2.5-0.2-6.7c-3-3.2-6.4-6.4-10.3-9.4
					c-3.9,3-7.3,6.2-10.3,9.4c-0.7,4.2-0.2,6.7-0.2,6.7s-5.2,6.6-7.5,13.9L709.8,678.3z"/>
				<path class="st5" d="M710.4,765.8c-0.2,0.1-0.4,0.2-0.6,0.2c-0.2-0.1-0.4-0.2-0.6-0.2c-1.6-0.7-3.2-1.5-4.7-2.4l-1.5,0.3
					c0,1.5,0.2,3.6,0.2,3.6l2.7-0.6l3.8,1.2l3.8-1.2l2.7,0.6c0,0,0.3-2.1,0.2-3.6l-1.5-0.3C713.6,764.3,712,765.1,710.4,765.8z"/>
				<path class="st5" d="M706.3,753.4l3.4,1.2l3.4-1.2l2.5,0.6c0,0,0.3-3,0.2-4.4l-0.8-0.2c-1.5,0.9-3,1.7-4.7,2.4
					c-0.2,0.1-0.4,0.2-0.6,0.2c-0.2-0.1-0.4-0.2-0.6-0.2c-1.6-0.7-3.2-1.5-4.7-2.4l-0.8,0.2c-0.2,1.4,0.2,4.4,0.2,4.4L706.3,753.4z"
					/>
				<path class="st5" d="M706.3,739.3l3.4,1.2l3.4-1.2l2.5,0.6c0,0,0.3-2.7,0.2-4.1l-0.9-0.2c-1.5,0.9-3,1.7-4.7,2.4
					c-0.2,0.1-0.4,0.2-0.6,0.2c-0.2-0.1-0.4-0.2-0.6-0.2c-1.6-0.7-3.2-1.5-4.7-2.4l-0.9,0.2c-0.1,1.5,0.2,4.1,0.2,4.1L706.3,739.3z"
					/>
			</g>
			<path class="st5" d="M709.8,696l-5.2,0.5c0,0,2.9-4.5,5.2-6.9V696z"/>
		</g>
		<path d="M709.7,939.2l-88.4,17.1v42.6c0,0,40.3,42,88.4,42c48.1,0,88.4-42,88.4-42v-42.6L709.7,939.2z"/>
		<g>
			<path d="M1010.8,920c0-29.9,0-59.8,0-89.7c-49.3,0-98.7,0-148,0c-2,0-3,0-5.1,0c-11.8,0-17.7,0-29.5,0c-16,0-32,0-48,0
				c-35.5,0-71.1,0-106.6,0c-10.4-0.4-23.4,3-32,9c-0.1,0.1-0.2,0.1-0.3,0.2c-0.3,0.2-0.5,0.4-0.8,0.6c-1-3.9-1.5-5.9-2.5-9.8
				c-27.2,0-54.4,0-81.6,0c-1.3,4.9-1.9,7.3-3.1,12.3c-0.2-0.2-0.5-0.4-0.7-0.6c-10.8-7.9-24.2-11.7-37.6-11.7
				c-17.9,0-35.8,0-53.7,0c-13.9-0.1-27.5,4.8-37.8,14.2c-10.9,9.9-17,24.1-17,38.8c0,44.6,0,89.1,0,133.7
				c1.7,12.2,4.1,25.4,16.4,31.6c11.6,6,24.6,2.9,36.5-0.1c17.4-6.2,35.1-12,52.9-16.9c14.1-3.9,28.1-11.2,37.9-21.1
				c8-8.1,16.3-17.8,17.4-30.3c97.5-14.4,194.9-13.9,292.1,1.6c0.2,13,0.4,25.9,0.5,38.9c51.9,11.5,101.8,27.8,150.5,49.2
				c0-29.9,0-59.8,0-89.7c-4-1.1-6-1.6-9.9-2.7c0-19.7-0.1-39.4-0.1-59C1004.8,919,1006.8,919.4,1010.8,920z"/>
			<path class="st5" d="M504.8,883c-11.5,0.9-23,1.8-34.4,2.8c-0.3,34.6-0.7,69.2-1,103.9c11.3-2.9,22.8-5.6,34.2-8.1
				c0.1-9.6,0.2-14.4,0.3-24c12.1-2.2,24.3-4.2,36.4-6c-0.2,12-0.2,18-0.4,30.1c-0.1,5.6-2.8,11-8.2,16.1
				c-5.3,5.1-11.7,8.6-18.9,10.4c-17.8,4.3-35.5,9.4-53,14.9c-7.2,2.3-13.3,2.1-18.4-0.7c-5.2-2.9-7.8-7.7-7.7-14.3
				c0.2-42.4,0.4-84.9,0.6-127.3c0-6.6,2.7-12.5,8.1-17.4c5.3-4.9,11.6-7.3,18.9-7.6c17.9-0.7,35.7-1.4,53.6-2
				c7.3-0.2,13.6,1.6,18.8,5.4c5.3,3.8,7.9,8.5,7.8,14.2c-0.2,12-0.2,18-0.4,30c-12.2,1.1-24.3,2.3-36.5,3.6
				C504.6,897.3,504.7,892.5,504.8,883z M584.5,935c-2.3,8.7-3.4,13-5.7,21.8c-10.9,1.3-16.4,2.1-27.3,3.7
				c9-36.2,18.3-72.4,27.7-108.6c11.9-0.3,23.8-0.5,35.7-0.7c8.3,33.3,16.7,66.6,25.3,99.8c-11,0.7-16.5,1.1-27.5,2.1
				c-2-8.1-3.1-12.1-5.1-20.2C598.3,933.7,593.7,934.1,584.5,935z M589.6,915.3c5.3-0.4,7.9-0.6,13.2-1c-2-14.5-4-29-6-43.5
				C594.4,885.7,592,900.5,589.6,915.3z M680.1,868c0,5.9,0,8.9-0.1,14.8c0,4,4,5.9,12.1,5.9c10.6-0.1,19.4,2,26.5,6.1
				c7.5,4.4,11.4,10.2,11.4,17.3c0,7.7,0,11.6,0.1,19.3c0,3.5-1.9,6.5-5.7,8.9c-3.7,2.4-8.2,3.6-13.3,3.6c-12.7,0-25.3,0.2-38,0.6
				c-5.2,0.2-9.6-0.9-13.4-3.2c-3.8-2.3-5.6-5.3-5.6-8.9c0.1-7.6,0.1-11.4,0.1-19c10.3-0.4,15.4-0.5,25.7-0.7c0,5.7,0,8.6-0.1,14.3
				c9.8-0.2,14.6-0.3,24.4-0.3c0-5.9,0-8.9,0-14.8c0-4-4.1-6-12.2-6c-10.6,0.1-19.4-1.7-26.5-5.7c-7.5-4.2-11.3-9.9-11.2-17.1
				c0.1-7.8,0.1-11.7,0.1-19.5c0-3.6,1.9-6.7,5.7-9.2c3.7-2.5,8.2-3.8,13.3-3.8c42.4-0.2,84.7,0,127.1,0.6
				c0.1,7.1,0.1,10.7,0.2,17.8c-10-0.3-14.9-0.4-24.9-0.6c0.2,25.8,0.4,51.7,0.6,77.5c-10.3-0.6-15.4-0.9-25.7-1.3
				c-0.1-25.5-0.3-51.1-0.4-76.6C727,867.9,703.5,867.8,680.1,868z M809.5,953.7c-0.4-34.1-0.8-68.2-1.2-102.2
				c10.7,0.2,16.1,0.3,26.8,0.5c0.4,28.4,0.7,56.9,1.1,85.3c12.5,1.3,24.9,2.8,37.3,4.4c0.1,8.1,0.2,12.1,0.3,20.2
				C852.5,958.6,831.1,955.9,809.5,953.7z M923.9,983.8c20.1,4.7,40,9.9,59.9,15.7c0.1,13,0.1,19.4,0.2,32.4
				c-31.6-10.9-63.4-20.1-96-27.7c-0.7-50.4-1.4-100.7-2.1-151.1c32.4,1,64.8,2.2,97.2,3.6c0.1,13,0.1,19.4,0.2,32.4
				c-20.2-2-40.3-3.8-60.5-5.5c0.1,11.8,0.3,23.5,0.4,35.3c16.8,2.3,33.5,4.7,50.2,7.4c0.1,12.8,0.1,19.2,0.2,31.9
				c-16.6-3.5-33.3-6.8-50.1-9.8C923.6,960.3,923.8,972.1,923.9,983.8z"/>
			<g>
				<path class="st6" d="M596.7,864.7c-2.4,14.8-4.7,29.7-7.1,44.5c0.3,0-0.3,6.1,0,6.1c2-12.8,5.1-31.7,7.1-44.5
					c1.7,12.5,4.3,31,6,43.5c0.3,0-0.3-6.1,0-6.1C600.7,893.8,598.7,879.3,596.7,864.7z"/>
				<path class="st6" d="M470.4,879.7c-0.3,34.6-0.7,69.2-1,103.9c0,0,0,0,0.1,0c0.3-32.6,0.6-65.2,1-97.8c11.4-1,22.9-1.9,34.4-2.8
					c0-1.9,0-3.8,0.1-6.1C493.3,877.7,481.8,878.7,470.4,879.7z"/>
				<path class="st6" d="M679.9,920.9c0-2.5,0-4.9,0-8.2c0,0,0,0,0,0C679.9,915.2,679.9,917.6,679.9,920.9
					C679.9,920.9,679.9,920.9,679.9,920.9z"/>
				<path class="st6" d="M922.8,883.8c20.2,1.6,40.3,3.5,60.4,5.5c0-2.2,0-4.2,0-6.1c-20.1-2-40.3-3.8-60.5-5.5
					C922.8,879.7,922.8,881.7,922.8,883.8z"/>
				<path class="st6" d="M539.9,975.6c-0.1,5.6-2.8,11-8.2,16.1c-5.3,5.1-11.7,8.6-18.9,10.4c-17.8,4.3-35.5,9.4-53,14.9
					c-7.2,2.3-13.3,2.1-18.4-0.7c-5-2.8-7.6-7.4-7.7-13.7c0,1.8,0,3.7,0,5.5c0,6.6,2.5,11.4,7.7,14.3c5.1,2.8,11.2,3,18.4,0.7
					c17.5-5.5,35.2-10.6,53-14.9c7.3-1.8,13.6-5.3,18.9-10.4c5.4-5.2,8.2-10.5,8.2-16.1c0.2-12,0.2-18,0.4-30.1c0,0-0.1,0-0.1,0
					C540.1,960,540,965.8,539.9,975.6z"/>
				<path class="st6" d="M973.5,952.3c-16.6-3.5-33.3-6.8-50-9.8c0,2,0,4.1,0.1,6.1c16.7,3,33.4,6.3,50,9.8
					C973.5,956.2,973.5,954.2,973.5,952.3z"/>
				<path class="st6" d="M665.6,900.3c7.1,3.9,15.9,5.8,26.5,5.7c8.1-0.1,12.1,1.9,12.2,5.9c0-1.8,0-3.7,0-6c0-4-4.1-6-12.2-6
					c-10.6,0.1-19.4-1.7-26.5-5.7c-7.1-3.9-10.8-9.2-11.2-15.8c0,1.5,0,3,0,4.8C654.4,890.4,658.1,896.1,665.6,900.3z"/>
				<path class="st6" d="M750.8,938.6c-0.1-25.5-0.3-51.1-0.4-76.6c-23.5-0.3-46.9-0.3-70.3-0.1c0,5.9,0,8.9-0.1,14.8
					c0,0.1,0,0.2,0,0.3c0-2.8,0-5.4,0-9.1c23.5-0.2,46.9-0.1,70.3,0.1c0.1,25.5,0.3,51.1,0.4,76.6c10.3,0.4,15.4,0.6,25.7,1.3
					c0-2,0-4.1-0.1-6.1C766.3,939.3,761.1,939,750.8,938.6z"/>
				<path class="st6" d="M809.5,947.6c-0.4-32.1-0.7-64.1-1.1-96.2c0,0,0,0-0.1,0c0.4,34.1,0.8,68.2,1.2,102.2
					c21.5,2.2,43,4.9,64.4,8.1c0-2.3-0.1-4.3-0.1-6.1C852.4,952.5,831,949.8,809.5,947.6z"/>
				<path class="st6" d="M775.9,862.4c0,2,0,4.1,0.1,6.1c9.9,0.2,14.9,0.3,24.8,0.6c0-2.3,0-4.3-0.1-6.1
					C790.8,862.8,785.8,862.6,775.9,862.4z"/>
				<path class="st6" d="M888,998.2c-0.7-48.3-1.3-96.7-2-145c0,0-0.1,0-0.1,0c0.7,50.4,1.4,100.7,2.1,151.1
					c32.5,7.6,64.4,16.7,96,27.7c0-2.2,0-4.2,0-6.1C952.3,1014.9,920.5,1005.7,888,998.2z"/>
				<path class="st6" d="M724.4,934.2c-3.7,2.4-8.2,3.6-13.3,3.6c-12.7,0-25.3,0.2-38,0.6c-5.2,0.2-9.6-0.9-13.4-3.2
					c-3.5-2.2-5.4-4.9-5.6-8.2c0,1.6,0,3.4,0,5.5c0,3.6,1.8,6.5,5.6,8.9c3.8,2.3,8.2,3.4,13.4,3.2c12.7-0.3,25.3-0.5,38-0.6
					c5.2,0,9.6-1.2,13.3-3.6c3.8-2.4,5.7-5.4,5.7-8.9c0-2.2,0-4.1,0-5.9C730,929,728.1,931.8,724.4,934.2z"/>
				<path class="st6" d="M612.6,947.1c-2-8.1-3.1-12.1-5.1-20.2c-9.2,0.7-13.8,1.1-23.1,2.1c-2.3,8.7-3.4,13-5.7,21.8
					c-10.4,1.3-15.8,2-25.7,3.5c-0.5,2.1-1.1,4.2-1.6,6.3c10.9-1.6,16.3-2.4,27.3-3.7c2.3-8.8,3.4-13.1,5.7-21.8
					c9.2-0.9,13.8-1.3,23.1-2.1c2,8.1,3,12.2,5.1,20.2c11-1,16.5-1.4,27.5-2.1c-0.5-2-1-4-1.5-6
					C628.6,945.7,623.1,946.2,612.6,947.1z"/>
				<path class="st6" d="M541,897.1c-12.1,1.1-24.3,2.3-36.4,3.6c0,1.9,0,3.8-0.1,6.1c12.1-1.3,24.3-2.5,36.5-3.6
					c0.2-12,0.2-18,0.4-30c0-0.5,0-0.9-0.1-1.4C541.2,880.9,541.1,886.8,541,897.1z"/>
			</g>
		</g>
		<g>
			<path class="st2" d="M647.7,997.4v-7.1l4.7,4.7v2.4c0,2.6-0.9,4.9-2.8,6.7c-1.8,1.8-4.1,2.8-6.7,2.8c-2.6,0-4.9-0.9-6.7-2.8
				c-1.8-1.8-2.8-4.1-2.8-6.7v-18.9c0-2.6,0.9-4.9,2.8-6.7c1.8-1.8,4.1-2.8,6.7-2.8c2.6,0,4.9,0.9,6.7,2.8c1.8,1.8,2.8,4.1,2.8,6.7
				v2.4l-4.7,4.7v-7.1c0-1.3-0.5-2.4-1.4-3.3c-0.9-0.9-2-1.4-3.3-1.4c-1.3,0-2.4,0.5-3.3,1.4c-0.9,0.9-1.4,2-1.4,3.3v18.9
				c0,1.3,0.5,2.4,1.4,3.3c0.9,0.9,2,1.4,3.3,1.4c1.3,0,2.4-0.5,3.3-1.4C647.3,999.8,647.7,998.7,647.7,997.4z"/>
			<path class="st2" d="M662.7,992.7v-20.6l-4.7-5.4l14.2,2.1c2.6,0.2,4.9,1.2,6.7,3c1.8,1.8,2.8,4.1,2.8,6.7v9.5
				c0,2.6-0.9,4.9-2.8,6.7c-1.1,1.1-2.3,1.8-3.6,2.3c4.4,5.8,8.3,9.5,11.5,11.2c3.4,1.8,6.4,2.5,9.1,2c-2.8,4.4-6.7,5.1-11.5,2.1
				c-4.5-2.8-9.3-7.8-14.5-14.9h-2.4v7.1l-4.7,4.7v-11.8l-4.7-4.7H662.7z M667.5,972.8v19.9h4.7c1.3,0,2.4-0.5,3.3-1.4
				c0.9-0.9,1.4-2,1.4-3.3v-9.5c0-1.3-0.5-2.4-1.4-3.3c-0.9-0.9-2-1.5-3.3-1.6L667.5,972.8z"/>
			<path class="st2" d="M691.9,997.4V969h4.7v28.4c0,1.3,0.5,2.4,1.4,3.3c0.9,0.9,2,1.4,3.3,1.4c1.3,0,2.4-0.5,3.3-1.4
				c0.9-0.9,1.4-2,1.4-3.3v-26l4.7-4.7v45c0,2.6-0.9,4.9-2.8,6.7c-1.8,1.8-4.1,2.8-6.7,2.8c-2.6,0-4.9-0.9-6.7-2.8
				c-0.9-0.9-1.5-1.8-2-2.8l3.9-3.9c0,1.3,0.5,2.4,1.4,3.3c0.9,0.9,2,1.4,3.3,1.4c1.3,0,2.4-0.5,3.3-1.4c0.9-0.9,1.4-2,1.4-3.3v-6
				c-1.4,0.8-3,1.2-4.7,1.2c-2.6,0-4.9-0.9-6.7-2.8C692.9,1002.3,691.9,1000,691.9,997.4z"/>
			<path class="st2" d="M721.1,992.7v-20.6l-4.7-5.4l14.2,2.1c2.6,0.2,4.9,1.2,6.7,3c1.8,1.8,2.8,4.1,2.8,6.7v9.5
				c0,2.6-0.9,4.9-2.8,6.7c-1.8,1.8-4.1,2.8-6.7,2.8h-4.7v7.1l-4.7,4.7v-11.8l-4.7-4.7H721.1z M725.9,972.8v19.9h4.7
				c1.3,0,2.4-0.5,3.3-1.4c0.9-0.9,1.4-2,1.4-3.3v-9.5c0-1.3-0.5-2.4-1.4-3.3c-0.9-0.9-2-1.5-3.3-1.6L725.9,972.8z"/>
			<path class="st2" d="M755.1,973.2v36l-4.7-4.7v-31.2c-3.2-0.1-6.6-0.4-10.5-1l3.9-4.1c7.8,0.9,13.6,0.7,17.2-0.5
				c3.6-1.2,6.2-3,7.7-5.3c1.3,5.1-0.8,8.4-6.3,9.8C760.3,972.8,757.8,973.1,755.1,973.2z"/>
			<path class="st2" d="M765.4,997.4v-18.9c0-2.6,0.9-4.9,2.8-6.7c1.8-1.8,4.1-2.8,6.7-2.8c2.6,0,4.9,0.9,6.7,2.8
				c1.8,1.8,2.8,4.1,2.8,6.7v18.9c0,2.6-0.9,4.9-2.8,6.7c-1.8,1.8-4.1,2.8-6.7,2.8c-2.6,0-4.9-0.9-6.7-2.8
				C766.3,1002.3,765.4,1000,765.4,997.4z M770.1,978.5v18.9c0,1.3,0.5,2.4,1.4,3.3c0.9,0.9,2,1.4,3.3,1.4c1.3,0,2.4-0.5,3.3-1.4
				c0.9-0.9,1.4-2,1.4-3.3v-18.9c0-1.3-0.5-2.4-1.4-3.3c-0.9-0.9-2-1.4-3.3-1.4c-1.3,0-2.4,0.5-3.3,1.4
				C770.5,976.1,770.1,977.2,770.1,978.5z"/>
		</g>
	</g>
</g>
</svg>
